# MagicaVoxel @ Ephtracy

# group
g darth vader

# material
mtllib darth vader.mtl
usemtl palette

# normals
vn -1 0 0
vn 1 0 0
vn 0 0 1
vn 0 0 -1
vn 0 -1 0
vn 0 1 0

# texcoords
vt 0.306641 0.5
vt 0.310547 0.5
vt 0.314453 0.5
vt 0.318359 0.5
vt 0.322266 0.5
vt 0.345703 0.5
vt 0.841797 0.5
vt 0.849609 0.5
vt 0.853516 0.5
vt 0.958984 0.5
vt 0.962891 0.5
vt 0.970703 0.5
vt 0.974609 0.5
vt 0.978516 0.5
vt 0.982422 0.5
vt 0.986328 0.5
vt 0.990234 0.5
vt 0.994141 0.5

# verts
v -6 0 1
v -6 0 -2
v -6 9 2
v -6 9 1
v -6 11 3
v -6 11 2
v -6 11 -1
v -6 11 -2
v -6 14 3
v -6 14 2
v -6 15 2
v -6 15 -1
v -5 8 3
v -5 8 1
v -5 9 3
v -5 9 2
v -5 9 1
v -5 11 3
v -5 11 2
v -5 14 3
v -5 14 2
v -5 15 3
v -5 15 2
v -4 0 5
v -4 0 -0
v -4 2 5
v -4 2 3
v -4 2 -0
v -4 8 3
v -4 8 1
v -4 8 -0
v -4 9 1
v -4 9 -0
v -4 13 1
v -4 13 -0
v -4 14 1
v -4 14 -0
v -4 16 4
v -4 16 -2
v -4 17 4
v -4 17 -2
v -3 0 6
v -3 0 5
v -3 1 6
v -3 1 5
v -3 8 4
v -3 8 3
v -3 14 4
v -3 14 3
v -3 15 3
v -3 15 -0
v -3 16 3
v -3 16 -0
v -3 17 4
v -3 17 -1
v -3 19 4
v -3 19 -1
v -2 2 2
v -2 2 1
v -2 3 1
v -2 8 2
v -2 8 1
v -2 19 4
v -2 19 -0
v -2 19 -1
v -2 20 4
v -2 20 -0
v -2 20 -1
v -1 15 4
v -1 15 3
v -1 16 4
v -1 16 3
v -1 20 3
v -1 20 1
v -1 20 -0
v -1 21 3
v -1 21 1
v -1 21 -0
v 1 0 5
v 1 0 -0
v 1 2 5
v 1 2 3
v 1 2 -0
v 1 8 3
v 1 8 -0
v 1 17 4
v 1 17 3
v 1 18 4
v 1 18 3
v 2 0 6
v 2 0 5
v 2 1 6
v 2 1 5
v 2 16 4
v 2 16 3
v 2 17 4
v 2 17 3
v 2 17 2
v 2 17 1
v 2 18 4
v 2 18 3
v 2 18 2
v 2 18 1
v 2 19 4
v 2 19 3
v 3 2 2
v 3 2 1
v 3 8 2
v 3 8 1
v 4 10 6
v 4 10 5
v 4 10 4
v 4 10 3
v 4 12 6
v 4 12 5
v 4 12 4
v 4 12 3
v 4 18 6
v 4 18 5
v 5 0 1
v 5 0 -1
v 5 9 2
v 5 9 1
v 5 9 -0
v 5 10 2
v 5 10 1
v 5 10 -0
v 5 10 -1
v 5 13 1
v 5 13 -0
v 5 14 1
v 5 14 -0
v -5 0 1
v -5 0 -1
v -5 8 1
v -5 9 1
v -5 9 -0
v -5 10 -0
v -5 10 -1
v -5 13 1
v -5 13 -0
v -5 14 1
v -5 14 -0
v -3 2 2
v -3 2 1
v -3 3 1
v -3 8 2
v -3 8 1
v -2 0 6
v -2 0 5
v -2 1 6
v -2 1 5
v -2 16 4
v -2 16 3
v -2 17 4
v -2 17 3
v -2 17 2
v -2 17 1
v -2 18 4
v -2 18 3
v -2 18 2
v -2 18 1
v -2 19 4
v -2 19 3
v -1 0 5
v -1 0 -0
v -1 2 5
v -1 2 3
v -1 2 -0
v -1 8 3
v -1 8 -0
v -1 17 4
v -1 17 3
v -1 18 4
v -1 18 3
v 1 15 4
v 1 15 3
v 1 16 4
v 1 16 3
v 1 20 3
v 1 20 -0
v 1 21 3
v 1 21 -0
v 2 2 2
v 2 2 1
v 2 8 2
v 2 8 1
v 2 19 4
v 2 19 -1
v 2 20 4
v 2 20 -1
v 3 0 6
v 3 0 5
v 3 1 6
v 3 1 5
v 3 8 4
v 3 8 3
v 3 14 4
v 3 14 3
v 3 15 3
v 3 15 -0
v 3 16 3
v 3 16 -0
v 3 17 4
v 3 17 -1
v 3 19 4
v 3 19 -1
v 4 0 5
v 4 0 -0
v 4 2 5
v 4 2 3
v 4 2 -0
v 4 8 3
v 4 8 -0
v 4 9 1
v 4 9 -0
v 4 10 3
v 4 10 2
v 4 10 1
v 4 13 1
v 4 13 -0
v 4 14 1
v 4 14 -0
v 4 16 4
v 4 16 -2
v 4 17 4
v 4 17 -2
v 5 10 6
v 5 10 5
v 5 10 4
v 5 10 2
v 5 11 3
v 5 11 2
v 5 12 6
v 5 12 5
v 5 12 4
v 5 12 3
v 5 18 6
v 5 18 5
v 6 0 1
v 6 0 -2
v 6 9 2
v 6 9 1
v 6 11 3
v 6 11 2
v 6 11 -1
v 6 11 -2
v 6 15 3
v 6 15 -1
v -3 0 6
v -3 1 6
v -2 0 6
v -2 1 6
v 2 0 6
v 2 1 6
v 3 0 6
v 3 1 6
v 4 10 6
v 4 12 6
v 4 18 6
v 5 10 6
v 5 12 6
v 5 18 6
v -4 0 5
v -4 2 5
v -3 0 5
v -3 1 5
v -2 0 5
v -2 1 5
v -1 0 5
v -1 2 5
v 1 0 5
v 1 2 5
v 2 0 5
v 2 1 5
v 3 0 5
v 3 1 5
v 4 0 5
v 4 2 5
v -4 16 4
v -4 17 4
v -3 8 4
v -3 14 4
v -3 17 4
v -3 19 4
v -2 10 4
v -2 11 4
v -2 12 4
v -2 13 4
v -2 16 4
v -2 17 4
v -2 18 4
v -2 19 4
v -2 20 4
v -1 10 4
v -1 11 4
v -1 12 4
v -1 13 4
v -1 15 4
v -1 16 4
v -1 17 4
v -1 18 4
v -1 19 4
v -1 20 4
v 0 11 4
v 0 12 4
v 0 13 4
v 1 10 4
v 1 11 4
v 1 12 4
v 1 13 4
v 1 15 4
v 1 16 4
v 1 17 4
v 1 18 4
v 2 10 4
v 2 11 4
v 2 12 4
v 2 13 4
v 2 16 4
v 2 17 4
v 2 18 4
v 2 19 4
v 2 20 4
v 3 8 4
v 3 14 4
v 3 17 4
v 3 19 4
v 4 16 4
v 4 17 4
v -6 11 3
v -6 14 3
v -5 8 3
v -5 9 3
v -5 11 3
v -5 14 3
v -5 15 3
v -4 2 3
v -4 8 3
v -4 9 3
v -4 14 3
v -3 8 3
v -3 14 3
v -3 15 3
v -3 16 3
v -2 15 3
v -2 16 3
v -2 17 3
v -2 18 3
v -2 19 3
v -1 2 3
v -1 8 3
v -1 15 3
v -1 16 3
v -1 17 3
v -1 18 3
v -1 19 3
v -1 20 3
v -1 21 3
v 0 17 3
v 0 19 3
v 0 20 3
v 0 21 3
v 1 2 3
v 1 8 3
v 1 15 3
v 1 16 3
v 1 17 3
v 1 18 3
v 1 20 3
v 1 21 3
v 2 15 3
v 2 16 3
v 2 17 3
v 2 18 3
v 2 19 3
v 3 8 3
v 3 14 3
v 3 15 3
v 3 16 3
v 4 2 3
v 4 8 3
v 4 10 3
v 4 12 3
v 4 14 3
v 5 11 3
v 5 12 3
v 5 14 3
v 6 11 3
v 6 15 3
v -6 9 2
v -6 11 2
v -6 14 2
v -6 15 2
v -5 9 2
v -5 11 2
v -5 14 2
v -5 15 2
v 5 9 2
v 5 10 2
v 5 11 2
v 6 9 2
v 6 11 2
v -6 0 1
v -6 9 1
v -5 0 1
v -5 8 1
v -5 9 1
v -3 2 1
v -3 3 1
v -3 8 1
v -2 2 1
v -2 3 1
v -2 8 1
v -2 17 1
v -2 18 1
v 2 2 1
v 2 8 1
v 2 17 1
v 2 18 1
v 3 2 1
v 3 8 1
v 4 9 1
v 4 10 1
v 5 0 1
v 5 9 1
v 5 10 1
v 6 0 1
v 6 9 1
v -5 13 -0
v -5 14 -0
v -4 13 -0
v -4 14 -0
v 4 13 -0
v 4 14 -0
v 5 13 -0
v 5 14 -0
v -5 0 -1
v -5 10 -1
v 5 0 -1
v 5 10 -1
v 4 12 5
v 4 18 5
v 5 12 5
v 5 18 5
v -3 2 2
v -3 8 2
v -2 2 2
v -2 8 2
v -2 17 2
v -2 18 2
v -1 17 2
v -1 18 2
v 0 17 2
v 0 18 2
v 1 17 2
v 1 18 2
v 2 2 2
v 2 8 2
v 2 17 2
v 2 18 2
v 3 2 2
v 3 8 2
v -5 8 1
v -5 9 1
v -5 13 1
v -5 14 1
v -4 8 1
v -4 9 1
v -4 13 1
v -4 14 1
v 4 13 1
v 4 14 1
v 5 13 1
v 5 14 1
v -5 9 -0
v -5 10 -0
v -4 0 -0
v -4 2 -0
v -4 8 -0
v -4 9 -0
v -4 10 -0
v -3 1 -0
v -3 2 -0
v -3 3 -0
v -3 8 -0
v -3 9 -0
v -3 10 -0
v -3 15 -0
v -3 16 -0
v -2 1 -0
v -2 2 -0
v -2 3 -0
v -2 9 -0
v -2 10 -0
v -1 0 -0
v -1 2 -0
v -1 8 -0
v -1 9 -0
v -1 20 -0
v -1 21 -0
v 1 0 -0
v 1 2 -0
v 1 8 -0
v 1 9 -0
v 1 20 -0
v 1 21 -0
v 2 1 -0
v 2 2 -0
v 3 1 -0
v 3 2 -0
v 3 8 -0
v 3 9 -0
v 3 15 -0
v 3 16 -0
v 4 0 -0
v 4 2 -0
v 4 8 -0
v 4 9 -0
v 4 10 -0
v 5 9 -0
v 5 10 -0
v -6 11 -1
v -6 15 -1
v -3 17 -1
v -3 19 -1
v -2 17 -1
v -2 19 -1
v -2 20 -1
v 2 19 -1
v 2 20 -1
v 3 17 -1
v 3 19 -1
v 6 11 -1
v 6 15 -1
v -6 0 -2
v -6 11 -2
v -4 16 -2
v -4 17 -2
v -2 16 -2
v -2 17 -2
v 4 16 -2
v 4 17 -2
v 6 0 -2
v 6 11 -2
v -3 0 6
v -2 0 6
v 2 0 6
v 3 0 6
v -4 0 5
v -3 0 5
v -2 0 5
v -1 0 5
v 1 0 5
v 2 0 5
v 3 0 5
v 4 0 5
v -6 0 1
v -5 0 1
v 5 0 1
v 6 0 1
v -4 0 -0
v -1 0 -0
v 1 0 -0
v 4 0 -0
v -5 0 -1
v 5 0 -1
v -6 0 -2
v 6 0 -2
v -3 8 4
v 3 8 4
v -5 8 3
v -4 8 3
v -3 8 3
v -1 8 3
v 1 8 3
v 3 8 3
v -3 8 2
v -2 8 2
v 2 8 2
v 3 8 2
v -5 8 1
v -4 8 1
v -3 8 1
v -2 8 1
v 2 8 1
v 3 8 1
v -1 8 -0
v 1 8 -0
v -6 9 2
v -5 9 2
v 5 9 2
v 6 9 2
v -6 9 1
v -5 9 1
v -4 9 1
v 4 9 1
v 5 9 1
v 6 9 1
v -5 9 -0
v -4 9 -0
v 4 9 -0
v 5 9 -0
v 4 10 6
v 5 10 6
v 4 10 5
v 5 10 5
v 4 10 4
v 5 10 4
v 4 10 3
v 4 10 2
v 5 10 2
v 4 10 1
v 5 10 1
v -5 10 -0
v -4 10 -0
v -3 10 -0
v -2 10 -0
v 4 10 -0
v 5 10 -0
v -5 10 -1
v 5 10 -1
v -6 11 3
v -5 11 3
v 5 11 3
v 6 11 3
v -6 11 2
v -5 11 2
v 5 11 2
v 6 11 2
v -5 14 1
v -4 14 1
v 4 14 1
v 5 14 1
v -5 14 -0
v -4 14 -0
v 4 14 -0
v 5 14 -0
v -1 15 4
v 1 15 4
v -1 15 3
v 1 15 3
v -4 16 4
v -2 16 4
v 2 16 4
v 4 16 4
v -3 16 3
v -2 16 3
v 2 16 3
v 3 16 3
v -3 16 -0
v 3 16 -0
v -3 16 -1
v -2 16 -1
v 3 16 -1
v -4 16 -2
v -2 16 -2
v 4 16 -2
v -2 17 4
v -1 17 4
v 1 17 4
v 2 17 4
v -2 17 3
v -1 17 3
v 1 17 3
v 2 17 3
v -2 18 2
v -1 18 2
v 0 18 2
v 1 18 2
v 2 18 2
v -2 18 1
v 2 18 1
v -2 19 4
v -1 19 4
v 2 19 4
v -2 19 3
v -1 19 3
v 0 19 3
v 2 19 3
v -3 1 6
v -2 1 6
v 2 1 6
v 3 1 6
v -3 1 5
v -2 1 5
v 2 1 5
v 3 1 5
v -4 2 5
v -1 2 5
v 1 2 5
v 4 2 5
v -4 2 3
v -1 2 3
v 1 2 3
v 4 2 3
v -3 2 2
v -2 2 2
v 2 2 2
v 3 2 2
v -3 2 1
v -2 2 1
v 2 2 1
v 3 2 1
v -6 11 -1
v 6 11 -1
v -6 11 -2
v 6 11 -2
v 4 12 5
v 5 12 5
v 4 12 4
v 5 12 4
v 4 12 3
v 5 12 3
v -5 13 1
v -4 13 1
v 4 13 1
v 5 13 1
v -5 13 -0
v -4 13 -0
v 4 13 -0
v 5 13 -0
v -3 14 4
v 3 14 4
v -6 14 3
v -5 14 3
v -3 14 3
v 3 14 3
v -6 14 2
v -5 14 2
v -5 15 3
v -3 15 3
v 3 15 3
v 6 15 3
v -6 15 2
v -5 15 2
v -3 15 -0
v 3 15 -0
v -6 15 -1
v 6 15 -1
v -1 16 4
v 1 16 4
v -1 16 3
v 1 16 3
v -4 17 4
v -3 17 4
v 3 17 4
v 4 17 4
v -2 17 2
v -1 17 2
v 0 17 2
v 1 17 2
v 2 17 2
v -2 17 1
v 2 17 1
v -3 17 -1
v -2 17 -1
v 3 17 -1
v -4 17 -2
v -2 17 -2
v 4 17 -2
v 4 18 6
v 5 18 6
v 4 18 5
v 5 18 5
v -2 18 4
v -1 18 4
v 1 18 4
v 2 18 4
v -2 18 3
v -1 18 3
v 1 18 3
v 2 18 3
v -3 19 4
v -2 19 4
v 2 19 4
v 3 19 4
v -2 19 -0
v -3 19 -1
v -2 19 -1
v 2 19 -1
v 3 19 -1
v -2 20 4
v -1 20 4
v 2 20 4
v -1 20 3
v 0 20 3
v 1 20 3
v -1 20 1
v -2 20 -0
v -1 20 -0
v 1 20 -0
v -2 20 -1
v 2 20 -1
v -1 21 3
v 0 21 3
v 1 21 3
v -1 21 1
v 0 21 1
v -1 21 -0
v 1 21 -0

# faces
f 4/18/1 2/18/1 1/18/1
f 6/18/1 4/18/1 3/18/1
f 7/18/1 2/18/1 4/18/1
f 7/18/1 4/18/1 6/18/1
f 8/18/1 2/18/1 7/18/1
f 9/18/1 6/18/1 5/18/1
f 9/18/1 7/18/1 6/18/1
f 10/18/1 7/18/1 9/18/1
f 11/18/1 7/18/1 10/18/1
f 12/18/1 7/18/1 11/18/1
f 15/17/1 14/17/1 13/17/1
f 16/17/1 14/17/1 15/17/1
f 17/17/1 14/17/1 16/17/1
f 18/13/1 16/13/1 15/13/1
f 19/13/1 16/13/1 18/13/1
f 22/18/1 21/18/1 20/18/1
f 23/18/1 21/18/1 22/18/1
f 26/18/1 25/18/1 24/18/1
f 27/18/1 25/18/1 26/18/1
f 28/18/1 25/18/1 27/18/1
f 29/12/1 28/12/1 27/12/1
f 30/12/1 28/12/1 29/12/1
f 31/12/1 28/12/1 30/12/1
f 32/14/1 31/14/1 30/14/1
f 33/14/1 31/14/1 32/14/1
f 36/3/1 35/3/1 34/3/1
f 37/3/1 35/3/1 36/3/1
f 40/15/1 39/15/1 38/15/1
f 41/15/1 39/15/1 40/15/1
f 44/18/1 43/18/1 42/18/1
f 45/18/1 43/18/1 44/18/1
f 48/14/1 47/14/1 46/14/1
f 49/14/1 47/14/1 48/14/1
f 52/17/1 51/17/1 50/17/1
f 53/17/1 51/17/1 52/17/1
f 56/15/1 55/15/1 54/15/1
f 57/15/1 55/15/1 56/15/1
f 60/12/1 59/12/1 58/12/1
f 61/12/1 60/12/1 58/12/1
f 62/12/1 60/12/1 61/12/1
f 66/15/1 64/15/1 63/15/1
f 67/17/1 65/17/1 64/17/1
f 67/15/1 64/15/1 66/15/1
f 68/17/1 65/17/1 67/17/1
f 71/13/1 70/13/1 69/13/1
f 72/13/1 70/13/1 71/13/1
f 76/15/1 74/15/1 73/15/1
f 77/17/1 75/17/1 74/17/1
f 77/15/1 74/15/1 76/15/1
f 78/17/1 75/17/1 77/17/1
f 81/18/1 80/18/1 79/18/1
f 82/18/1 80/18/1 81/18/1
f 83/18/1 80/18/1 82/18/1
f 84/12/1 83/12/1 82/12/1
f 85/12/1 83/12/1 84/12/1
f 88/13/1 87/13/1 86/13/1
f 89/13/1 87/13/1 88/13/1
f 92/18/1 91/18/1 90/18/1
f 93/18/1 91/18/1 92/18/1
f 96/17/1 95/17/1 94/17/1
f 97/17/1 95/17/1 96/17/1
f 102/17/1 99/17/1 98/17/1
f 103/17/1 99/17/1 102/17/1
f 104/17/1 101/17/1 100/17/1
f 105/17/1 101/17/1 104/17/1
f 108/12/1 107/12/1 106/12/1
f 109/12/1 107/12/1 108/12/1
f 114/18/1 111/18/1 110/18/1
f 115/17/1 112/17/1 111/17/1
f 115/18/1 111/18/1 114/18/1
f 116/13/1 113/13/1 112/13/1
f 116/17/1 112/17/1 115/17/1
f 117/13/1 113/13/1 116/13/1
f 118/7/1 115/7/1 114/7/1
f 119/7/1 115/7/1 118/7/1
f 123/18/1 121/18/1 120/18/1
f 124/18/1 121/18/1 123/18/1
f 125/18/1 123/18/1 122/18/1
f 126/18/1 123/18/1 125/18/1
f 127/18/1 121/18/1 124/18/1
f 128/18/1 121/18/1 127/18/1
f 131/18/1 130/18/1 129/18/1
f 132/18/1 130/18/1 131/18/1
f 133/18/2 134/18/2 135/18/2
f 135/18/2 134/18/2 136/18/2
f 136/18/2 134/18/2 137/18/2
f 137/18/2 134/18/2 138/18/2
f 138/18/2 134/18/2 139/18/2
f 140/18/2 141/18/2 142/18/2
f 142/18/2 141/18/2 143/18/2
f 144/12/2 145/12/2 146/12/2
f 144/12/2 146/12/2 147/12/2
f 147/12/2 146/12/2 148/12/2
f 149/18/2 150/18/2 151/18/2
f 151/18/2 150/18/2 152/18/2
f 153/15/2 154/15/2 155/15/2
f 155/15/2 154/15/2 156/15/2
f 157/15/2 158/15/2 161/15/2
f 161/15/2 158/15/2 162/15/2
f 159/15/2 160/15/2 163/15/2
f 163/15/2 160/15/2 164/15/2
f 165/18/2 166/18/2 167/18/2
f 167/18/2 166/18/2 168/18/2
f 168/18/2 166/18/2 169/18/2
f 168/12/2 169/12/2 170/12/2
f 170/12/2 169/12/2 171/12/2
f 172/13/2 173/13/2 174/13/2
f 174/13/2 173/13/2 175/13/2
f 176/13/2 177/13/2 178/13/2
f 178/13/2 177/13/2 179/13/2
f 180/17/2 181/17/2 182/17/2
f 182/17/2 181/17/2 183/17/2
f 184/12/2 185/12/2 186/12/2
f 186/12/2 185/12/2 187/12/2
f 188/17/2 189/17/2 190/17/2
f 190/17/2 189/17/2 191/17/2
f 192/18/2 193/18/2 194/18/2
f 194/18/2 193/18/2 195/18/2
f 196/14/2 197/14/2 198/14/2
f 198/14/2 197/14/2 199/14/2
f 200/17/2 201/17/2 202/17/2
f 202/17/2 201/17/2 203/17/2
f 204/17/2 205/17/2 206/17/2
f 206/17/2 205/17/2 207/17/2
f 208/18/2 209/18/2 210/18/2
f 210/18/2 209/18/2 211/18/2
f 211/18/2 209/18/2 212/18/2
f 211/12/2 212/12/2 213/12/2
f 213/12/2 212/12/2 214/12/2
f 213/14/2 214/14/2 215/14/2
f 215/14/2 214/14/2 216/14/2
f 213/14/2 215/14/2 217/14/2
f 217/14/2 215/14/2 218/14/2
f 218/14/2 215/14/2 219/14/2
f 220/3/2 221/3/2 222/3/2
f 222/3/2 221/3/2 223/3/2
f 224/17/2 225/17/2 226/17/2
f 226/17/2 225/17/2 227/17/2
f 230/13/2 231/13/2 232/13/2
f 232/13/2 231/13/2 233/13/2
f 228/18/2 229/18/2 234/18/2
f 229/17/2 230/17/2 235/17/2
f 234/18/2 229/18/2 235/18/2
f 230/13/2 232/13/2 236/13/2
f 235/17/2 230/17/2 236/17/2
f 236/13/2 232/13/2 237/13/2
f 234/7/2 235/7/2 238/7/2
f 238/7/2 235/7/2 239/7/2
f 240/18/2 241/18/2 243/18/2
f 242/18/2 243/18/2 245/18/2
f 243/18/2 241/18/2 246/18/2
f 245/18/2 243/18/2 246/18/2
f 246/18/2 241/18/2 247/18/2
f 244/18/2 245/18/2 248/18/2
f 245/18/2 246/18/2 248/18/2
f 248/18/2 246/18/2 249/18/2
f 252/18/3 251/18/3 250/18/3
f 253/18/3 251/18/3 252/18/3
f 256/18/3 255/18/3 254/18/3
f 257/18/3 255/18/3 256/18/3
f 261/18/3 259/18/3 258/18/3
f 262/7/3 260/7/3 259/7/3
f 262/18/3 259/18/3 261/18/3
f 263/7/3 260/7/3 262/7/3
f 266/18/3 265/18/3 264/18/3
f 267/18/3 265/18/3 266/18/3
f 269/18/3 265/18/3 267/18/3
f 270/18/3 269/18/3 268/18/3
f 271/18/3 265/18/3 269/18/3
f 271/18/3 269/18/3 270/18/3
f 274/18/3 273/18/3 272/18/3
f 275/18/3 273/18/3 274/18/3
f 277/18/3 273/18/3 275/18/3
f 278/18/3 277/18/3 276/18/3
f 279/18/3 273/18/3 277/18/3
f 279/18/3 277/18/3 278/18/3
f 284/15/3 281/15/3 280/15/3
f 286/14/3 283/14/3 282/14/3
f 287/14/3 283/14/3 286/14/3
f 288/14/3 283/14/3 287/14/3
f 289/14/3 283/14/3 288/14/3
f 290/15/3 285/15/3 284/15/3
f 290/15/3 284/15/3 280/15/3
f 291/15/3 285/15/3 290/15/3
f 292/15/3 285/15/3 291/15/3
f 293/15/3 285/15/3 292/15/3
f 295/14/3 286/14/3 282/14/3
f 295/11/3 287/11/3 286/11/3
f 296/9/3 288/9/3 287/9/3
f 296/11/3 287/11/3 295/11/3
f 297/11/3 289/11/3 288/11/3
f 297/9/3 288/9/3 296/9/3
f 298/14/3 283/14/3 289/14/3
f 298/11/3 289/11/3 297/11/3
f 301/13/3 292/13/3 291/13/3
f 302/13/3 292/13/3 301/13/3
f 303/15/3 294/15/3 293/15/3
f 304/15/3 294/15/3 303/15/3
f 305/10/3 297/10/3 296/10/3
f 305/12/3 296/12/3 295/12/3
f 306/12/3 298/12/3 297/12/3
f 306/10/3 297/10/3 305/10/3
f 307/14/3 283/14/3 298/14/3
f 307/12/3 298/12/3 306/12/3
f 308/14/3 295/14/3 282/14/3
f 308/12/3 305/12/3 295/12/3
f 309/11/3 306/11/3 305/11/3
f 309/12/3 305/12/3 308/12/3
f 310/9/3 307/9/3 306/9/3
f 310/11/3 306/11/3 309/11/3
f 311/14/3 283/14/3 307/14/3
f 311/9/3 307/9/3 310/9/3
f 312/13/3 300/13/3 299/13/3
f 313/13/3 300/13/3 312/13/3
f 316/8/3 309/8/3 308/8/3
f 316/14/3 308/14/3 282/14/3
f 317/11/3 310/11/3 309/11/3
f 317/8/3 309/8/3 316/8/3
f 318/10/3 311/10/3 310/10/3
f 318/11/3 310/11/3 317/11/3
f 319/14/3 283/14/3 311/14/3
f 319/10/3 311/10/3 318/10/3
f 321/13/3 315/13/3 314/13/3
f 322/13/3 315/13/3 321/13/3
f 323/17/3 304/17/3 303/17/3
f 324/17/3 304/17/3 323/17/3
f 325/14/3 318/14/3 317/14/3
f 325/14/3 316/14/3 282/14/3
f 325/14/3 317/14/3 316/14/3
f 325/14/3 319/14/3 318/14/3
f 326/14/3 283/14/3 319/14/3
f 326/14/3 319/14/3 325/14/3
f 327/17/3 322/17/3 321/17/3
f 327/17/3 323/17/3 322/17/3
f 327/17/3 321/17/3 320/17/3
f 328/17/3 323/17/3 327/17/3
f 329/17/3 327/17/3 320/17/3
f 330/17/3 327/17/3 329/17/3
f 335/18/3 332/18/3 331/18/3
f 336/18/3 332/18/3 335/18/3
f 339/17/3 334/17/3 333/17/3
f 340/13/3 335/13/3 334/13/3
f 340/13/3 336/13/3 335/13/3
f 340/17/3 334/17/3 339/17/3
f 341/18/3 337/18/3 336/18/3
f 341/13/3 336/13/3 340/13/3
f 342/14/3 340/14/3 339/14/3
f 342/12/3 339/12/3 338/12/3
f 342/14/3 341/14/3 340/14/3
f 343/18/3 337/18/3 341/18/3
f 343/14/3 341/14/3 342/14/3
f 344/18/3 337/18/3 343/18/3
f 346/17/3 345/17/3 344/17/3
f 346/14/3 344/14/3 343/14/3
f 347/17/3 345/17/3 346/17/3
f 351/12/3 342/12/3 338/12/3
f 352/12/3 342/12/3 351/12/3
f 353/14/3 346/14/3 343/14/3
f 353/16/3 347/16/3 346/16/3
f 354/18/3 348/18/3 347/18/3
f 354/16/3 347/16/3 353/16/3
f 355/18/3 348/18/3 354/18/3
f 356/18/3 350/18/3 349/18/3
f 357/18/3 350/18/3 356/18/3
f 360/17/3 355/17/3 354/17/3
f 360/18/3 357/18/3 356/18/3
f 360/18/3 356/18/3 355/18/3
f 361/18/3 357/18/3 360/18/3
f 362/15/3 359/15/3 358/15/3
f 363/15/3 359/15/3 362/15/3
f 366/14/3 353/14/3 343/14/3
f 367/17/3 361/17/3 360/17/3
f 367/17/3 360/17/3 354/17/3
f 368/17/3 361/17/3 367/17/3
f 369/17/3 361/17/3 368/17/3
f 370/17/3 363/17/3 362/17/3
f 371/17/3 363/17/3 370/17/3
f 372/14/3 366/14/3 343/14/3
f 372/16/3 367/16/3 366/16/3
f 372/16/3 368/16/3 367/16/3
f 373/16/3 368/16/3 372/16/3
f 374/16/3 368/16/3 373/16/3
f 375/17/3 361/17/3 369/17/3
f 376/17/3 361/17/3 375/17/3
f 377/12/3 365/12/3 364/12/3
f 378/14/3 372/14/3 343/14/3
f 379/17/3 373/17/3 372/17/3
f 379/14/3 372/14/3 378/14/3
f 380/17/3 373/17/3 379/17/3
f 381/12/3 377/12/3 364/12/3
f 382/14/3 378/14/3 377/14/3
f 382/12/3 377/12/3 381/12/3
f 383/14/3 378/14/3 382/14/3
f 384/14/3 378/14/3 383/14/3
f 385/18/3 379/18/3 378/18/3
f 385/14/3 378/14/3 384/14/3
f 387/13/3 385/13/3 384/13/3
f 388/18/3 379/18/3 385/18/3
f 388/13/3 385/13/3 387/13/3
f 389/18/3 387/18/3 386/18/3
f 389/18/3 388/18/3 387/18/3
f 390/18/3 379/18/3 388/18/3
f 390/18/3 388/18/3 389/18/3
f 395/18/3 392/18/3 391/18/3
f 396/18/3 392/18/3 395/18/3
f 397/18/3 394/18/3 393/18/3
f 398/18/3 394/18/3 397/18/3
f 402/18/3 400/18/3 399/18/3
f 402/18/3 401/18/3 400/18/3
f 403/18/3 401/18/3 402/18/3
f 406/18/3 405/18/3 404/18/3
f 407/18/3 405/18/3 406/18/3
f 408/18/3 405/18/3 407/18/3
f 412/2/3 410/2/3 409/2/3
f 413/12/3 411/12/3 410/12/3
f 413/2/3 410/2/3 412/2/3
f 414/12/3 411/12/3 413/12/3
f 419/5/3 416/5/3 415/5/3
f 420/5/3 416/5/3 419/5/3
f 421/12/3 418/12/3 417/12/3
f 422/12/3 418/12/3 421/12/3
f 426/18/3 424/18/3 423/18/3
f 427/18/3 424/18/3 426/18/3
f 428/18/3 426/18/3 425/18/3
f 429/18/3 426/18/3 428/18/3
f 432/18/3 431/18/3 430/18/3
f 433/18/3 431/18/3 432/18/3
f 436/18/3 435/18/3 434/18/3
f 437/18/3 435/18/3 436/18/3
f 440/18/3 439/18/3 438/18/3
f 441/18/3 439/18/3 440/18/3
f 442/7/4 443/7/4 444/7/4
f 444/7/4 443/7/4 445/7/4
f 446/12/4 447/12/4 448/12/4
f 448/12/4 447/12/4 449/12/4
f 450/5/4 451/5/4 452/5/4
f 452/5/4 451/5/4 453/5/4
f 452/18/4 453/18/4 454/18/4
f 454/18/4 453/18/4 455/18/4
f 454/17/4 455/17/4 456/17/4
f 456/17/4 455/17/4 457/17/4
f 456/5/4 457/5/4 460/5/4
f 460/5/4 457/5/4 461/5/4
f 458/12/4 459/12/4 462/12/4
f 462/12/4 459/12/4 463/12/4
f 464/17/4 465/17/4 468/17/4
f 468/17/4 465/17/4 469/17/4
f 466/6/4 467/6/4 470/6/4
f 470/6/4 467/6/4 471/6/4
f 472/6/4 473/6/4 474/6/4
f 474/6/4 473/6/4 475/6/4
f 476/18/4 477/18/4 481/18/4
f 481/18/4 477/18/4 482/18/4
f 478/18/4 479/18/4 483/18/4
f 479/12/4 480/12/4 484/12/4
f 483/18/4 479/18/4 484/18/4
f 484/12/4 480/12/4 485/12/4
f 480/14/4 481/14/4 486/14/4
f 485/12/4 480/12/4 486/12/4
f 481/3/4 482/3/4 487/3/4
f 486/14/4 481/14/4 487/14/4
f 487/3/4 482/3/4 488/3/4
f 478/18/4 483/18/4 491/18/4
f 483/1/4 484/1/4 491/1/4
f 484/2/4 485/2/4 492/2/4
f 491/1/4 484/1/4 492/1/4
f 487/12/4 488/12/4 493/12/4
f 492/2/4 485/2/4 493/2/4
f 485/12/4 486/12/4 493/12/4
f 486/12/4 487/12/4 493/12/4
f 493/12/4 488/12/4 494/12/4
f 494/12/4 488/12/4 495/12/4
f 491/18/4 492/18/4 496/18/4
f 478/18/4 491/18/4 496/18/4
f 492/12/4 493/12/4 497/12/4
f 496/18/4 492/18/4 497/18/4
f 493/12/4 494/12/4 497/12/4
f 497/12/4 494/12/4 498/12/4
f 494/3/4 495/3/4 499/3/4
f 498/12/4 494/12/4 499/12/4
f 498/14/4 499/14/4 504/14/4
f 499/3/4 495/3/4 505/3/4
f 504/14/4 499/14/4 505/14/4
f 500/17/4 501/17/4 506/17/4
f 506/17/4 501/17/4 507/17/4
f 502/18/4 503/18/4 508/18/4
f 503/12/4 504/12/4 509/12/4
f 508/18/4 503/18/4 509/18/4
f 502/18/4 508/18/4 510/18/4
f 508/1/4 509/1/4 510/1/4
f 509/12/4 504/12/4 511/12/4
f 510/1/4 509/1/4 511/1/4
f 504/3/4 505/3/4 512/3/4
f 511/12/4 504/12/4 512/12/4
f 505/3/4 495/3/4 513/3/4
f 512/3/4 505/3/4 513/3/4
f 489/17/4 490/17/4 514/17/4
f 514/17/4 490/17/4 515/17/4
f 502/18/4 510/18/4 516/18/4
f 510/18/4 511/18/4 516/18/4
f 511/12/4 512/12/4 517/12/4
f 516/18/4 511/18/4 517/18/4
f 512/14/4 513/14/4 518/14/4
f 517/12/4 512/12/4 518/12/4
f 513/3/4 495/3/4 519/3/4
f 518/14/4 513/14/4 519/14/4
f 519/3/4 495/3/4 520/3/4
f 519/18/4 520/18/4 521/18/4
f 521/18/4 520/18/4 522/18/4
f 525/15/4 526/15/4 527/15/4
f 527/15/4 526/15/4 528/15/4
f 527/17/4 528/17/4 530/17/4
f 528/17/4 529/17/4 530/17/4
f 530/17/4 529/17/4 531/17/4
f 527/17/4 530/17/4 532/17/4
f 532/17/4 530/17/4 533/17/4
f 523/18/4 524/18/4 534/18/4
f 534/18/4 524/18/4 535/18/4
f 538/15/4 539/15/4 540/15/4
f 540/15/4 539/15/4 541/15/4
f 540/17/4 541/17/4 542/17/4
f 542/17/4 541/17/4 543/17/4
f 536/18/4 537/18/4 544/18/4
f 544/18/4 537/18/4 545/18/4
f 551/18/5 547/18/5 546/18/5
f 552/18/5 547/18/5 551/18/5
f 555/18/5 549/18/5 548/18/5
f 556/18/5 549/18/5 555/18/5
f 562/18/5 553/18/5 552/18/5
f 562/18/5 551/18/5 550/18/5
f 562/18/5 552/18/5 551/18/5
f 563/18/5 553/18/5 562/18/5
f 564/18/5 557/18/5 556/18/5
f 564/18/5 555/18/5 554/18/5
f 564/18/5 556/18/5 555/18/5
f 565/18/5 557/18/5 564/18/5
f 566/18/5 559/18/5 558/18/5
f 567/18/5 561/18/5 560/18/5
f 568/18/5 566/18/5 558/18/5
f 568/18/5 567/18/5 566/18/5
f 569/18/5 561/18/5 567/18/5
f 569/18/5 567/18/5 568/18/5
f 574/14/5 571/14/5 570/14/5
f 575/14/5 571/14/5 574/14/5
f 576/14/5 571/14/5 575/14/5
f 577/14/5 571/14/5 576/14/5
f 582/17/5 573/17/5 572/17/5
f 583/17/5 573/17/5 582/17/5
f 584/3/5 579/3/5 578/3/5
f 585/3/5 579/3/5 584/3/5
f 586/3/5 581/3/5 580/3/5
f 587/3/5 581/3/5 586/3/5
f 588/14/5 576/14/5 575/14/5
f 589/14/5 576/14/5 588/14/5
f 594/18/5 591/18/5 590/18/5
f 595/18/5 591/18/5 594/18/5
f 598/18/5 593/18/5 592/18/5
f 599/18/5 593/18/5 598/18/5
f 600/18/5 596/18/5 595/18/5
f 601/18/5 596/18/5 600/18/5
f 602/18/5 598/18/5 597/18/5
f 603/18/5 598/18/5 602/18/5
f 606/18/5 605/18/5 604/18/5
f 607/18/5 605/18/5 606/18/5
f 608/17/5 607/17/5 606/17/5
f 609/17/5 607/17/5 608/17/5
f 610/13/5 609/13/5 608/13/5
f 611/13/5 609/13/5 610/13/5
f 612/13/5 609/13/5 611/13/5
f 613/18/5 612/18/5 611/18/5
f 614/18/5 612/18/5 613/18/5
f 621/18/5 616/18/5 615/18/5
f 621/18/5 620/18/5 619/18/5
f 621/18/5 619/18/5 618/18/5
f 621/18/5 618/18/5 617/18/5
f 621/18/5 617/18/5 616/18/5
f 622/18/5 620/18/5 621/18/5
f 627/18/5 624/18/5 623/18/5
f 628/18/5 624/18/5 627/18/5
f 629/18/5 626/18/5 625/18/5
f 630/18/5 626/18/5 629/18/5
f 635/18/5 632/18/5 631/18/5
f 636/18/5 632/18/5 635/18/5
f 637/18/5 634/18/5 633/18/5
f 638/18/5 634/18/5 637/18/5
f 641/13/5 640/13/5 639/13/5
f 642/13/5 640/13/5 641/13/5
f 647/15/5 644/15/5 643/15/5
f 648/15/5 644/15/5 647/15/5
f 649/17/5 646/17/5 645/17/5
f 650/17/5 646/17/5 649/17/5
f 651/15/5 647/15/5 643/15/5
f 652/17/5 646/17/5 650/17/5
f 653/15/5 651/15/5 643/15/5
f 653/5/5 652/5/5 651/5/5
f 654/5/5 652/5/5 653/5/5
f 655/17/5 646/17/5 652/17/5
f 655/5/5 652/5/5 654/5/5
f 656/15/5 654/15/5 653/15/5
f 656/15/5 653/15/5 643/15/5
f 657/17/5 655/17/5 654/17/5
f 657/15/5 654/15/5 656/15/5
f 658/17/5 646/17/5 655/17/5
f 658/17/5 655/17/5 657/17/5
f 663/13/5 660/13/5 659/13/5
f 664/13/5 660/13/5 663/13/5
f 665/13/5 662/13/5 661/13/5
f 666/13/5 662/13/5 665/13/5
f 672/5/5 668/5/5 667/5/5
f 672/5/5 671/5/5 670/5/5
f 672/5/5 670/5/5 669/5/5
f 672/5/5 669/5/5 668/5/5
f 673/5/5 671/5/5 672/5/5
f 677/15/5 675/15/5 674/15/5
f 678/17/5 676/17/5 675/17/5
f 678/15/5 675/15/5 677/15/5
f 679/17/5 676/17/5 678/17/5
f 680/17/5 676/17/5 679/17/5
f 681/18/6 682/18/6 685/18/6
f 685/18/6 682/18/6 686/18/6
f 683/18/6 684/18/6 687/18/6
f 687/18/6 684/18/6 688/18/6
f 689/18/6 690/18/6 693/18/6
f 693/18/6 690/18/6 694/18/6
f 691/18/6 692/18/6 695/18/6
f 695/18/6 692/18/6 696/18/6
f 697/1/6 698/1/6 701/1/6
f 701/1/6 698/1/6 702/1/6
f 699/1/6 700/1/6 703/1/6
f 703/1/6 700/1/6 704/1/6
f 705/18/6 706/18/6 707/18/6
f 707/18/6 706/18/6 708/18/6
f 709/17/6 710/17/6 711/17/6
f 711/17/6 710/17/6 712/17/6
f 711/13/6 712/13/6 713/13/6
f 713/13/6 712/13/6 714/13/6
f 715/18/6 716/18/6 719/18/6
f 719/18/6 716/18/6 720/18/6
f 717/18/6 718/18/6 721/18/6
f 721/18/6 718/18/6 722/18/6
f 723/14/6 724/14/6 727/14/6
f 727/14/6 724/14/6 728/14/6
f 725/18/6 726/18/6 729/18/6
f 729/18/6 726/18/6 730/18/6
f 731/18/6 732/18/6 736/18/6
f 736/18/6 732/18/6 737/18/6
f 735/18/6 736/18/6 737/18/6
f 733/18/6 734/18/6 738/18/6
f 735/18/6 737/18/6 739/18/6
f 737/18/6 738/18/6 739/18/6
f 738/18/6 734/18/6 740/18/6
f 739/18/6 738/18/6 740/18/6
f 741/13/6 742/13/6 743/13/6
f 743/13/6 742/13/6 744/13/6
f 749/4/6 750/4/6 754/4/6
f 752/4/6 753/4/6 754/4/6
f 751/4/6 752/4/6 754/4/6
f 750/4/6 751/4/6 754/4/6
f 754/4/6 753/4/6 755/4/6
f 745/15/6 746/15/6 756/15/6
f 747/17/6 748/17/6 758/17/6
f 756/15/6 757/15/6 759/15/6
f 745/15/6 756/15/6 759/15/6
f 757/17/6 758/17/6 760/17/6
f 759/15/6 757/15/6 760/15/6
f 758/17/6 748/17/6 761/17/6
f 760/17/6 758/17/6 761/17/6
f 762/7/6 763/7/6 764/7/6
f 764/7/6 763/7/6 765/7/6
f 766/13/6 767/13/6 770/13/6
f 770/13/6 767/13/6 771/13/6
f 768/13/6 769/13/6 772/13/6
f 772/13/6 769/13/6 773/13/6
f 774/15/6 775/15/6 778/15/6
f 774/15/6 778/15/6 779/15/6
f 779/15/6 778/15/6 780/15/6
f 776/17/6 777/17/6 781/17/6
f 781/17/6 777/17/6 782/17/6
f 783/15/6 784/15/6 786/15/6
f 784/17/6 785/17/6 786/17/6
f 786/17/6 785/17/6 787/17/6
f 787/17/6 785/17/6 788/17/6
f 783/15/6 786/15/6 789/15/6
f 783/15/6 789/15/6 790/15/6
f 790/15/6 789/15/6 791/15/6
f 788/17/6 785/17/6 792/17/6
f 790/17/6 791/17/6 793/17/6
f 791/17/6 792/17/6 793/17/6
f 792/17/6 785/17/6 794/17/6
f 793/17/6 792/17/6 794/17/6
f 795/15/6 796/15/6 798/15/6
f 796/17/6 797/17/6 799/17/6
f 798/15/6 796/15/6 799/15/6
f 798/17/6 799/17/6 800/17/6
f 799/17/6 797/17/6 801/17/6
f 800/17/6 799/17/6 801/17/6
