# MagicaVoxel @ Ephtracy

# group
g Obi wan

# material
mtllib Obi wan.mtl
usemtl palette

# normals
vn -1 0 0
vn 1 0 0
vn 0 0 1
vn 0 0 -1
vn 0 -1 0
vn 0 1 0

# texcoords
vt 0.00195313 0.5
vt 0.0332031 0.5
vt 0.0605469 0.5
vt 0.306641 0.5
vt 0.314453 0.5
vt 0.318359 0.5
vt 0.322266 0.5
vt 0.341797 0.5
vt 0.345703 0.5
vt 0.396484 0.5
vt 0.423828 0.5
vt 0.587891 0.5
vt 0.705078 0.5
vt 0.728516 0.5
vt 0.908203 0.5
vt 0.970703 0.5
vt 0.974609 0.5
vt 0.994141 0.5

# verts
v -6 0 1
v -6 0 -2
v -6 9 2
v -6 9 1
v -6 11 3
v -6 11 2
v -6 11 -1
v -6 11 -2
v -6 15 3
v -6 15 -1
v -5 8 3
v -5 8 1
v -5 9 3
v -5 9 2
v -5 9 1
v -5 11 3
v -5 11 2
v -4 0 5
v -4 0 -0
v -4 2 5
v -4 2 3
v -4 5 3
v -4 5 -0
v -4 8 3
v -4 8 1
v -4 8 -0
v -4 9 1
v -4 9 -0
v -4 13 1
v -4 13 -0
v -4 14 1
v -4 14 -0
v -3 0 6
v -3 0 5
v -3 1 6
v -3 1 5
v -3 15 4
v -3 15 3
v -3 15 -0
v -3 19 4
v -3 19 -0
v -2 2 2
v -2 2 1
v -2 5 2
v -2 5 1
v -2 8 2
v -2 8 1
v -2 19 4
v -2 19 -0
v -2 20 4
v -2 20 -0
v 1 0 5
v 1 0 -0
v 1 2 5
v 1 2 3
v 1 5 3
v 1 5 -0
v 1 8 3
v 1 8 2
v 1 8 -0
v 2 0 6
v 2 0 5
v 2 1 6
v 2 1 5
v 2 15 4
v 2 15 3
v 2 17 3
v 2 17 2
v 2 17 1
v 2 18 3
v 2 18 2
v 2 18 1
v 2 19 4
v 2 19 3
v 3 2 2
v 3 2 1
v 3 5 2
v 3 5 1
v 3 7 2
v 3 7 1
v 3 8 2
v 3 8 1
v 4 10 6
v 4 10 5
v 4 10 4
v 4 10 3
v 4 11 3
v 4 12 6
v 4 12 5
v 4 12 4
v 4 12 3
v 4 18 6
v 4 18 5
v 5 0 1
v 5 0 -1
v 5 9 2
v 5 9 1
v 5 9 -0
v 5 10 2
v 5 10 1
v 5 10 -0
v 5 10 -1
v 5 13 1
v 5 13 -0
v 5 14 1
v 5 14 -0
v -5 0 1
v -5 0 -1
v -5 8 1
v -5 9 1
v -5 9 -0
v -5 10 -0
v -5 10 -1
v -5 13 1
v -5 13 -0
v -5 14 1
v -5 14 -0
v -3 2 2
v -3 2 1
v -3 5 2
v -3 5 1
v -3 8 2
v -3 8 1
v -2 0 6
v -2 0 5
v -2 1 6
v -2 1 5
v -2 15 4
v -2 15 3
v -2 17 3
v -2 17 2
v -2 17 1
v -2 18 3
v -2 18 2
v -2 18 1
v -2 19 4
v -2 19 3
v -1 0 5
v -1 0 -0
v -1 2 5
v -1 2 3
v -1 5 3
v -1 5 -0
v -1 8 3
v -1 8 2
v -1 8 -0
v 2 2 2
v 2 2 1
v 2 5 2
v 2 5 1
v 2 8 2
v 2 8 1
v 2 19 4
v 2 19 -0
v 2 20 4
v 2 20 -0
v 3 0 6
v 3 0 5
v 3 1 6
v 3 1 5
v 3 15 4
v 3 15 3
v 3 15 -0
v 3 19 4
v 3 19 -0
v 4 0 5
v 4 0 -0
v 4 2 5
v 4 2 3
v 4 5 3
v 4 5 -0
v 4 7 3
v 4 7 -0
v 4 9 1
v 4 9 -0
v 4 10 3
v 4 10 2
v 4 10 1
v 4 13 1
v 4 13 -0
v 4 14 1
v 4 14 -0
v 5 10 6
v 5 10 5
v 5 10 4
v 5 10 2
v 5 11 3
v 5 11 2
v 5 12 6
v 5 12 5
v 5 12 4
v 5 12 3
v 5 18 6
v 5 18 5
v 6 0 1
v 6 0 -2
v 6 9 2
v 6 9 1
v 6 11 3
v 6 11 2
v 6 11 -1
v 6 11 -2
v 6 15 3
v 6 15 -1
v -3 0 6
v -3 1 6
v -2 0 6
v -2 1 6
v 2 0 6
v 2 1 6
v 3 0 6
v 3 1 6
v 4 10 6
v 4 12 6
v 4 18 6
v 5 10 6
v 5 12 6
v 5 18 6
v -4 0 5
v -4 2 5
v -3 0 5
v -3 1 5
v -2 0 5
v -2 1 5
v -1 0 5
v -1 2 5
v 1 0 5
v 1 2 5
v 2 0 5
v 2 1 5
v 3 0 5
v 3 1 5
v 4 0 5
v 4 2 5
v -3 15 4
v -3 19 4
v -2 15 4
v -2 19 4
v -2 20 4
v 2 15 4
v 2 19 4
v 2 20 4
v 3 15 4
v 3 19 4
v -6 11 3
v -6 15 3
v -5 8 3
v -5 9 3
v -5 11 3
v -5 14 3
v -4 2 3
v -4 5 3
v -4 8 3
v -4 9 3
v -4 14 3
v -3 10 3
v -3 11 3
v -3 13 3
v -3 14 3
v -3 15 3
v -2 10 3
v -2 11 3
v -2 12 3
v -2 13 3
v -2 15 3
v -2 17 3
v -2 18 3
v -2 19 3
v -1 2 3
v -1 5 3
v -1 8 3
v -1 11 3
v -1 12 3
v -1 15 3
v -1 16 3
v -1 17 3
v -1 18 3
v 0 9 3
v 0 10 3
v 0 11 3
v 0 14 3
v 0 15 3
v 1 2 3
v 1 5 3
v 1 8 3
v 1 9 3
v 1 10 3
v 1 13 3
v 1 14 3
v 1 15 3
v 1 16 3
v 1 17 3
v 1 18 3
v 2 8 3
v 2 9 3
v 2 12 3
v 2 13 3
v 2 14 3
v 2 15 3
v 2 17 3
v 2 18 3
v 2 19 3
v 3 7 3
v 3 8 3
v 3 11 3
v 3 12 3
v 3 13 3
v 3 14 3
v 3 15 3
v 4 2 3
v 4 5 3
v 4 7 3
v 4 10 3
v 4 11 3
v 4 12 3
v 4 14 3
v 5 11 3
v 5 12 3
v 5 14 3
v 6 11 3
v 6 15 3
v -6 9 2
v -6 11 2
v -5 9 2
v -5 11 2
v 5 9 2
v 5 10 2
v 5 11 2
v 6 9 2
v 6 11 2
v -6 0 1
v -6 9 1
v -5 0 1
v -5 8 1
v -5 9 1
v -3 2 1
v -3 5 1
v -3 8 1
v -2 2 1
v -2 5 1
v -2 8 1
v -2 17 1
v -2 18 1
v 2 2 1
v 2 5 1
v 2 8 1
v 2 17 1
v 2 18 1
v 3 2 1
v 3 5 1
v 3 7 1
v 3 8 1
v 4 9 1
v 4 10 1
v 5 0 1
v 5 9 1
v 5 10 1
v 6 0 1
v 6 9 1
v -5 13 -0
v -5 14 -0
v -4 13 -0
v -4 14 -0
v 4 13 -0
v 4 14 -0
v 5 13 -0
v 5 14 -0
v -5 0 -1
v -5 10 -1
v 5 0 -1
v 5 10 -1
v 4 12 5
v 4 18 5
v 5 12 5
v 5 18 5
v -3 2 2
v -3 5 2
v -3 8 2
v -2 2 2
v -2 5 2
v -2 8 2
v -2 17 2
v -2 18 2
v -1 17 2
v -1 18 2
v 1 17 2
v 1 18 2
v 2 2 2
v 2 5 2
v 2 8 2
v 2 17 2
v 2 18 2
v 3 2 2
v 3 5 2
v 3 7 2
v 3 8 2
v -5 8 1
v -5 9 1
v -5 13 1
v -5 14 1
v -4 8 1
v -4 9 1
v -4 13 1
v -4 14 1
v 4 13 1
v 4 14 1
v 5 13 1
v 5 14 1
v -5 9 -0
v -5 10 -0
v -4 0 -0
v -4 5 -0
v -4 8 -0
v -4 9 -0
v -4 10 -0
v -3 8 -0
v -3 9 -0
v -3 10 -0
v -3 15 -0
v -3 19 -0
v -2 9 -0
v -2 10 -0
v -2 19 -0
v -2 20 -0
v -1 0 -0
v -1 5 -0
v -1 8 -0
v -1 9 -0
v 1 0 -0
v 1 5 -0
v 1 8 -0
v 2 19 -0
v 2 20 -0
v 3 7 -0
v 3 9 -0
v 3 15 -0
v 3 19 -0
v 4 0 -0
v 4 5 -0
v 4 7 -0
v 4 9 -0
v 4 10 -0
v 5 9 -0
v 5 10 -0
v -6 11 -1
v -6 15 -1
v 6 11 -1
v 6 15 -1
v -6 0 -2
v -6 11 -2
v 6 0 -2
v 6 11 -2
v -3 0 6
v -2 0 6
v 2 0 6
v 3 0 6
v -4 0 5
v -3 0 5
v -2 0 5
v -1 0 5
v 1 0 5
v 2 0 5
v 3 0 5
v 4 0 5
v -6 0 1
v -5 0 1
v 5 0 1
v 6 0 1
v -4 0 -0
v -1 0 -0
v 1 0 -0
v 4 0 -0
v -5 0 -1
v 5 0 -1
v -6 0 -2
v 6 0 -2
v -5 8 3
v -4 8 3
v -1 8 3
v 1 8 3
v -3 8 2
v -2 8 2
v -1 8 2
v 1 8 2
v 2 8 2
v 3 8 2
v -5 8 1
v -4 8 1
v -3 8 1
v -2 8 1
v 2 8 1
v 3 8 1
v -1 8 -0
v 1 8 -0
v -6 9 2
v -5 9 2
v 5 9 2
v 6 9 2
v -6 9 1
v -5 9 1
v -4 9 1
v 4 9 1
v 5 9 1
v 6 9 1
v -5 9 -0
v -4 9 -0
v 4 9 -0
v 5 9 -0
v 4 10 6
v 5 10 6
v 4 10 5
v 5 10 5
v 4 10 4
v 5 10 4
v 4 10 3
v 4 10 2
v 5 10 2
v 4 10 1
v 5 10 1
v -5 10 -0
v -4 10 -0
v -3 10 -0
v -2 10 -0
v 4 10 -0
v 5 10 -0
v -5 10 -1
v 5 10 -1
v -6 11 3
v -5 11 3
v 5 11 3
v 6 11 3
v -6 11 2
v -5 11 2
v 5 11 2
v 6 11 2
v -5 14 1
v -4 14 1
v 4 14 1
v 5 14 1
v -5 14 -0
v -4 14 -0
v 4 14 -0
v 5 14 -0
v -3 15 4
v -2 15 4
v 2 15 4
v 3 15 4
v -3 15 3
v -2 15 3
v 2 15 3
v 3 15 3
v -2 18 2
v -1 18 2
v 1 18 2
v 2 18 2
v -2 18 1
v 2 18 1
v -2 19 4
v 2 19 4
v -2 19 3
v 2 19 3
v -3 1 6
v -2 1 6
v 2 1 6
v 3 1 6
v -3 1 5
v -2 1 5
v 2 1 5
v 3 1 5
v -4 2 5
v -1 2 5
v 1 2 5
v 4 2 5
v -4 2 3
v -1 2 3
v 1 2 3
v 4 2 3
v -3 2 2
v -2 2 2
v 2 2 2
v 3 2 2
v -3 2 1
v -2 2 1
v 2 2 1
v 3 2 1
v -6 11 -1
v 6 11 -1
v -6 11 -2
v 6 11 -2
v 4 12 5
v 5 12 5
v 4 12 4
v 5 12 4
v 4 12 3
v 5 12 3
v -5 13 1
v -4 13 1
v 4 13 1
v 5 13 1
v -5 13 -0
v -4 13 -0
v 4 13 -0
v 5 13 -0
v -6 15 3
v -3 15 3
v 3 15 3
v 6 15 3
v -3 15 -0
v 3 15 -0
v -6 15 -1
v 6 15 -1
v -2 17 2
v -1 17 2
v 1 17 2
v 2 17 2
v -2 17 1
v 2 17 1
v 4 18 6
v 5 18 6
v 4 18 5
v 5 18 5
v -3 19 4
v -2 19 4
v 2 19 4
v 3 19 4
v -3 19 -0
v -2 19 -0
v 2 19 -0
v 3 19 -0
v -2 20 4
v 2 20 4
v -2 20 -0
v 2 20 -0

# faces
f 4/2/1 2/2/1 1/2/1
f 6/2/1 4/2/1 3/2/1
f 7/2/1 2/2/1 4/2/1
f 7/2/1 4/2/1 6/2/1
f 8/2/1 2/2/1 7/2/1
f 9/2/1 6/2/1 5/2/1
f 9/2/1 7/2/1 6/2/1
f 10/2/1 7/2/1 9/2/1
f 13/1/1 12/1/1 11/1/1
f 14/1/1 12/1/1 13/1/1
f 15/1/1 12/1/1 14/1/1
f 16/4/1 14/4/1 13/4/1
f 17/4/1 14/4/1 16/4/1
f 20/10/1 19/10/1 18/10/1
f 21/10/1 19/10/1 20/10/1
f 22/10/1 19/10/1 21/10/1
f 23/10/1 19/10/1 22/10/1
f 24/8/1 23/8/1 22/8/1
f 25/8/1 23/8/1 24/8/1
f 26/8/1 23/8/1 25/8/1
f 27/18/1 26/18/1 25/18/1
f 28/18/1 26/18/1 27/18/1
f 31/5/1 30/5/1 29/5/1
f 32/5/1 30/5/1 31/5/1
f 35/10/1 34/10/1 33/10/1
f 36/10/1 34/10/1 35/10/1
f 40/2/1 38/2/1 37/2/1
f 40/2/1 39/2/1 38/2/1
f 41/2/1 39/2/1 40/2/1
f 44/10/1 43/10/1 42/10/1
f 45/10/1 43/10/1 44/10/1
f 46/8/1 45/8/1 44/8/1
f 47/8/1 45/8/1 46/8/1
f 50/2/1 49/2/1 48/2/1
f 51/2/1 49/2/1 50/2/1
f 54/10/1 53/10/1 52/10/1
f 55/10/1 53/10/1 54/10/1
f 56/10/1 53/10/1 55/10/1
f 57/10/1 53/10/1 56/10/1
f 58/8/1 57/8/1 56/8/1
f 59/8/1 57/8/1 58/8/1
f 60/8/1 57/8/1 59/8/1
f 63/10/1 62/10/1 61/10/1
f 64/10/1 62/10/1 63/10/1
f 67/2/1 66/2/1 65/2/1
f 70/2/1 67/2/1 65/2/1
f 71/2/1 69/2/1 68/2/1
f 72/2/1 69/2/1 71/2/1
f 73/2/1 70/2/1 65/2/1
f 74/2/1 70/2/1 73/2/1
f 77/10/1 76/10/1 75/10/1
f 78/10/1 76/10/1 77/10/1
f 79/8/1 78/8/1 77/8/1
f 80/8/1 78/8/1 79/8/1
f 81/15/1 80/15/1 79/15/1
f 82/15/1 80/15/1 81/15/1
f 87/4/1 86/4/1 85/4/1
f 88/18/1 84/18/1 83/18/1
f 89/1/1 85/1/1 84/1/1
f 89/18/1 84/18/1 88/18/1
f 90/4/1 87/4/1 85/4/1
f 90/1/1 85/1/1 89/1/1
f 91/4/1 87/4/1 90/4/1
f 92/14/1 89/14/1 88/14/1
f 93/14/1 89/14/1 92/14/1
f 97/2/1 95/2/1 94/2/1
f 98/2/1 95/2/1 97/2/1
f 99/2/1 97/2/1 96/2/1
f 100/2/1 97/2/1 99/2/1
f 101/2/1 95/2/1 98/2/1
f 102/2/1 95/2/1 101/2/1
f 105/2/1 104/2/1 103/2/1
f 106/2/1 104/2/1 105/2/1
f 107/2/2 108/2/2 109/2/2
f 109/2/2 108/2/2 110/2/2
f 110/2/2 108/2/2 111/2/2
f 111/2/2 108/2/2 112/2/2
f 112/2/2 108/2/2 113/2/2
f 114/2/2 115/2/2 116/2/2
f 116/2/2 115/2/2 117/2/2
f 118/10/2 119/10/2 120/10/2
f 120/10/2 119/10/2 121/10/2
f 120/8/2 121/8/2 122/8/2
f 122/8/2 121/8/2 123/8/2
f 124/10/2 125/10/2 126/10/2
f 126/10/2 125/10/2 127/10/2
f 128/2/2 129/2/2 130/2/2
f 128/2/2 130/2/2 133/2/2
f 131/2/2 132/2/2 134/2/2
f 134/2/2 132/2/2 135/2/2
f 128/2/2 133/2/2 136/2/2
f 136/2/2 133/2/2 137/2/2
f 138/10/2 139/10/2 140/10/2
f 140/10/2 139/10/2 141/10/2
f 141/10/2 139/10/2 142/10/2
f 142/10/2 139/10/2 143/10/2
f 142/8/2 143/8/2 144/8/2
f 144/8/2 143/8/2 145/8/2
f 145/8/2 143/8/2 146/8/2
f 147/10/2 148/10/2 149/10/2
f 149/10/2 148/10/2 150/10/2
f 149/8/2 150/8/2 151/8/2
f 151/8/2 150/8/2 152/8/2
f 153/2/2 154/2/2 155/2/2
f 155/2/2 154/2/2 156/2/2
f 157/10/2 158/10/2 159/10/2
f 159/10/2 158/10/2 160/10/2
f 161/2/2 162/2/2 164/2/2
f 162/2/2 163/2/2 164/2/2
f 164/2/2 163/2/2 165/2/2
f 166/10/2 167/10/2 168/10/2
f 168/10/2 167/10/2 169/10/2
f 169/10/2 167/10/2 170/10/2
f 170/10/2 167/10/2 171/10/2
f 170/8/2 171/8/2 172/8/2
f 172/8/2 171/8/2 173/8/2
f 172/15/2 173/15/2 174/15/2
f 174/15/2 173/15/2 175/15/2
f 172/15/2 174/15/2 176/15/2
f 176/15/2 174/15/2 177/15/2
f 177/15/2 174/15/2 178/15/2
f 179/5/2 180/5/2 181/5/2
f 181/5/2 180/5/2 182/5/2
f 185/4/2 186/4/2 187/4/2
f 187/4/2 186/4/2 188/4/2
f 183/18/2 184/18/2 189/18/2
f 184/1/2 185/1/2 190/1/2
f 189/18/2 184/18/2 190/18/2
f 185/4/2 187/4/2 191/4/2
f 190/1/2 185/1/2 191/1/2
f 191/4/2 187/4/2 192/4/2
f 189/14/2 190/14/2 193/14/2
f 193/14/2 190/14/2 194/14/2
f 195/2/2 196/2/2 198/2/2
f 197/2/2 198/2/2 200/2/2
f 198/2/2 196/2/2 201/2/2
f 200/2/2 198/2/2 201/2/2
f 201/2/2 196/2/2 202/2/2
f 199/2/2 200/2/2 203/2/2
f 200/2/2 201/2/2 203/2/2
f 203/2/2 201/2/2 204/2/2
f 207/10/3 206/10/3 205/10/3
f 208/10/3 206/10/3 207/10/3
f 211/10/3 210/10/3 209/10/3
f 212/10/3 210/10/3 211/10/3
f 216/18/3 214/18/3 213/18/3
f 217/14/3 215/14/3 214/14/3
f 217/18/3 214/18/3 216/18/3
f 218/14/3 215/14/3 217/14/3
f 221/10/3 220/10/3 219/10/3
f 222/10/3 220/10/3 221/10/3
f 224/10/3 220/10/3 222/10/3
f 225/10/3 224/10/3 223/10/3
f 226/10/3 220/10/3 224/10/3
f 226/10/3 224/10/3 225/10/3
f 229/10/3 228/10/3 227/10/3
f 230/10/3 228/10/3 229/10/3
f 232/10/3 228/10/3 230/10/3
f 233/10/3 232/10/3 231/10/3
f 234/10/3 228/10/3 232/10/3
f 234/10/3 232/10/3 233/10/3
f 237/2/3 236/2/3 235/2/3
f 238/2/3 236/2/3 237/2/3
f 241/2/3 239/2/3 238/2/3
f 242/2/3 239/2/3 241/2/3
f 243/2/3 241/2/3 240/2/3
f 244/2/3 241/2/3 243/2/3
f 249/2/3 246/2/3 245/2/3
f 250/2/3 246/2/3 249/2/3
f 253/1/3 248/1/3 247/1/3
f 254/4/3 249/4/3 248/4/3
f 254/4/3 250/4/3 249/4/3
f 254/1/3 248/1/3 253/1/3
f 255/2/3 246/2/3 250/2/3
f 255/4/3 250/4/3 254/4/3
f 256/11/3 255/11/3 254/11/3
f 257/11/3 255/11/3 256/11/3
f 258/11/3 255/11/3 257/11/3
f 259/2/3 246/2/3 255/2/3
f 259/11/3 255/11/3 258/11/3
f 260/2/3 246/2/3 259/2/3
f 261/11/3 256/11/3 254/11/3
f 261/13/3 257/13/3 256/13/3
f 262/11/3 258/11/3 257/11/3
f 262/13/3 257/13/3 261/13/3
f 263/11/3 258/11/3 262/11/3
f 264/15/3 260/15/3 259/15/3
f 264/11/3 258/11/3 263/11/3
f 264/15/3 259/15/3 258/15/3
f 265/15/3 260/15/3 264/15/3
f 269/10/3 252/10/3 251/10/3
f 270/8/3 253/8/3 252/8/3
f 270/10/3 252/10/3 269/10/3
f 271/18/3 254/18/3 253/18/3
f 271/8/3 253/8/3 270/8/3
f 272/11/3 263/11/3 262/11/3
f 272/11/3 262/11/3 261/11/3
f 273/15/3 265/15/3 264/15/3
f 273/11/3 263/11/3 272/11/3
f 273/15/3 264/15/3 263/15/3
f 274/3/3 266/3/3 265/3/3
f 274/15/3 265/15/3 273/15/3
f 275/3/3 266/3/3 274/3/3
f 276/12/3 267/12/3 266/12/3
f 276/3/3 266/3/3 275/3/3
f 277/3/3 268/3/3 267/3/3
f 277/12/3 267/12/3 276/12/3
f 278/11/3 261/11/3 254/11/3
f 278/11/3 272/11/3 261/11/3
f 278/18/3 254/18/3 271/18/3
f 279/11/3 272/11/3 278/11/3
f 280/15/3 274/15/3 273/15/3
f 280/11/3 272/11/3 279/11/3
f 280/15/3 273/15/3 272/15/3
f 281/15/3 274/15/3 280/15/3
f 282/1/3 275/1/3 274/1/3
f 282/15/3 274/15/3 281/15/3
f 285/18/3 278/18/3 271/18/3
f 286/13/3 279/13/3 278/13/3
f 286/18/3 278/18/3 285/18/3
f 287/15/3 281/15/3 280/15/3
f 287/13/3 279/13/3 286/13/3
f 287/15/3 280/15/3 279/15/3
f 288/15/3 281/15/3 287/15/3
f 289/13/3 282/13/3 281/13/3
f 289/15/3 281/15/3 288/15/3
f 290/1/3 275/1/3 282/1/3
f 290/13/3 282/13/3 289/13/3
f 291/3/3 276/3/3 275/3/3
f 291/1/3 275/1/3 290/1/3
f 291/3/3 277/3/3 276/3/3
f 292/3/3 277/3/3 291/3/3
f 293/3/3 268/3/3 277/3/3
f 293/3/3 277/3/3 292/3/3
f 294/8/3 285/8/3 284/8/3
f 294/18/3 286/18/3 285/18/3
f 295/15/3 287/15/3 286/15/3
f 295/18/3 286/18/3 294/18/3
f 295/15/3 288/15/3 287/15/3
f 296/15/3 288/15/3 295/15/3
f 297/13/3 289/13/3 288/13/3
f 297/15/3 288/15/3 296/15/3
f 298/11/3 290/11/3 289/11/3
f 298/13/3 289/13/3 297/13/3
f 299/3/3 292/3/3 291/3/3
f 299/11/3 290/11/3 298/11/3
f 299/3/3 291/3/3 290/3/3
f 300/12/3 293/12/3 292/12/3
f 300/3/3 292/3/3 299/3/3
f 301/3/3 268/3/3 293/3/3
f 301/12/3 293/12/3 300/12/3
f 302/3/3 268/3/3 301/3/3
f 303/8/3 294/8/3 284/8/3
f 304/15/3 296/15/3 295/15/3
f 304/8/3 294/8/3 303/8/3
f 304/15/3 295/15/3 294/15/3
f 305/15/3 296/15/3 304/15/3
f 306/13/3 297/13/3 296/13/3
f 306/15/3 296/15/3 305/15/3
f 307/11/3 298/11/3 297/11/3
f 307/13/3 297/13/3 306/13/3
f 307/11/3 299/11/3 298/11/3
f 308/11/3 299/11/3 307/11/3
f 309/11/3 299/11/3 308/11/3
f 310/10/3 284/10/3 283/10/3
f 311/8/3 303/8/3 284/8/3
f 311/10/3 284/10/3 310/10/3
f 312/15/3 305/15/3 304/15/3
f 312/8/3 303/8/3 311/8/3
f 312/15/3 304/15/3 303/15/3
f 313/15/3 305/15/3 312/15/3
f 314/13/3 306/13/3 305/13/3
f 314/15/3 305/15/3 313/15/3
f 315/11/3 307/11/3 306/11/3
f 315/13/3 306/13/3 314/13/3
f 315/11/3 308/11/3 307/11/3
f 316/2/3 309/2/3 308/2/3
f 316/11/3 308/11/3 315/11/3
f 318/4/3 316/4/3 315/4/3
f 319/2/3 309/2/3 316/2/3
f 319/4/3 316/4/3 318/4/3
f 320/2/3 318/2/3 317/2/3
f 320/2/3 319/2/3 318/2/3
f 321/2/3 309/2/3 319/2/3
f 321/2/3 319/2/3 320/2/3
f 324/2/3 323/2/3 322/2/3
f 325/2/3 323/2/3 324/2/3
f 329/2/3 327/2/3 326/2/3
f 329/2/3 328/2/3 327/2/3
f 330/2/3 328/2/3 329/2/3
f 333/2/3 332/2/3 331/2/3
f 334/2/3 332/2/3 333/2/3
f 335/2/3 332/2/3 334/2/3
f 339/10/3 337/10/3 336/10/3
f 340/8/3 338/8/3 337/8/3
f 340/10/3 337/10/3 339/10/3
f 341/8/3 338/8/3 340/8/3
f 347/2/3 343/2/3 342/2/3
f 348/2/3 343/2/3 347/2/3
f 349/10/3 345/10/3 344/10/3
f 350/8/3 346/8/3 345/8/3
f 350/10/3 345/10/3 349/10/3
f 351/8/3 346/8/3 350/8/3
f 352/8/3 346/8/3 351/8/3
f 356/2/3 354/2/3 353/2/3
f 357/2/3 354/2/3 356/2/3
f 358/2/3 356/2/3 355/2/3
f 359/2/3 356/2/3 358/2/3
f 362/2/3 361/2/3 360/2/3
f 363/2/3 361/2/3 362/2/3
f 366/2/3 365/2/3 364/2/3
f 367/2/3 365/2/3 366/2/3
f 370/2/3 369/2/3 368/2/3
f 371/2/3 369/2/3 370/2/3
f 372/14/4 373/14/4 374/14/4
f 374/14/4 373/14/4 375/14/4
f 376/10/4 377/10/4 379/10/4
f 377/8/4 378/8/4 380/8/4
f 379/10/4 377/10/4 380/10/4
f 380/8/4 378/8/4 381/8/4
f 382/12/4 383/12/4 384/12/4
f 384/12/4 383/12/4 385/12/4
f 384/3/4 385/3/4 386/3/4
f 386/3/4 385/3/4 387/3/4
f 386/12/4 387/12/4 391/12/4
f 391/12/4 387/12/4 392/12/4
f 388/10/4 389/10/4 393/10/4
f 389/8/4 390/8/4 394/8/4
f 393/10/4 389/10/4 394/10/4
f 394/8/4 390/8/4 395/8/4
f 395/8/4 390/8/4 396/8/4
f 397/1/4 398/1/4 401/1/4
f 401/1/4 398/1/4 402/1/4
f 399/9/4 400/9/4 403/9/4
f 403/9/4 400/9/4 404/9/4
f 405/9/4 406/9/4 407/9/4
f 407/9/4 406/9/4 408/9/4
f 409/2/4 410/2/4 414/2/4
f 414/2/4 410/2/4 415/2/4
f 412/8/4 413/8/4 416/8/4
f 413/18/4 414/18/4 416/18/4
f 414/5/4 415/5/4 417/5/4
f 416/18/4 414/18/4 417/18/4
f 417/5/4 415/5/4 418/5/4
f 417/16/4 418/16/4 421/16/4
f 416/16/4 417/16/4 421/16/4
f 421/16/4 418/16/4 422/16/4
f 419/2/4 420/2/4 423/2/4
f 411/10/4 412/10/4 425/10/4
f 412/8/4 416/8/4 426/8/4
f 425/10/4 412/10/4 426/10/4
f 416/16/4 421/16/4 427/16/4
f 426/8/4 416/8/4 427/8/4
f 421/8/4 422/8/4 428/8/4
f 427/16/4 421/16/4 428/16/4
f 427/8/4 428/8/4 431/8/4
f 423/2/4 424/2/4 432/2/4
f 419/2/4 423/2/4 432/2/4
f 432/2/4 424/2/4 433/2/4
f 430/8/4 431/8/4 434/8/4
f 428/8/4 422/8/4 435/8/4
f 434/8/4 431/8/4 435/8/4
f 431/8/4 428/8/4 435/8/4
f 419/2/4 432/2/4 436/2/4
f 436/2/4 432/2/4 437/2/4
f 429/10/4 430/10/4 438/10/4
f 430/8/4 434/8/4 439/8/4
f 438/10/4 430/10/4 439/10/4
f 434/15/4 435/15/4 440/15/4
f 439/8/4 434/8/4 440/8/4
f 435/8/4 422/8/4 441/8/4
f 440/15/4 435/15/4 441/15/4
f 441/8/4 422/8/4 442/8/4
f 441/2/4 442/2/4 443/2/4
f 443/2/4 442/2/4 444/2/4
f 445/2/4 446/2/4 447/2/4
f 447/2/4 446/2/4 448/2/4
f 449/2/4 450/2/4 451/2/4
f 451/2/4 450/2/4 452/2/4
f 458/10/5 454/10/5 453/10/5
f 459/10/5 454/10/5 458/10/5
f 462/10/5 456/10/5 455/10/5
f 463/10/5 456/10/5 462/10/5
f 469/10/5 460/10/5 459/10/5
f 469/10/5 458/10/5 457/10/5
f 469/10/5 459/10/5 458/10/5
f 470/10/5 460/10/5 469/10/5
f 471/10/5 464/10/5 463/10/5
f 471/10/5 462/10/5 461/10/5
f 471/10/5 463/10/5 462/10/5
f 472/10/5 464/10/5 471/10/5
f 473/2/5 466/2/5 465/2/5
f 474/2/5 468/2/5 467/2/5
f 475/2/5 473/2/5 465/2/5
f 475/2/5 474/2/5 473/2/5
f 476/2/5 468/2/5 474/2/5
f 476/2/5 474/2/5 475/2/5
f 483/18/5 480/18/5 479/18/5
f 484/18/5 480/18/5 483/18/5
f 487/1/5 478/1/5 477/1/5
f 488/1/5 478/1/5 487/1/5
f 489/5/5 482/5/5 481/5/5
f 490/5/5 482/5/5 489/5/5
f 491/5/5 486/5/5 485/5/5
f 492/5/5 486/5/5 491/5/5
f 493/8/5 484/8/5 483/8/5
f 494/8/5 484/8/5 493/8/5
f 499/2/5 496/2/5 495/2/5
f 500/2/5 496/2/5 499/2/5
f 503/2/5 498/2/5 497/2/5
f 504/2/5 498/2/5 503/2/5
f 505/2/5 501/2/5 500/2/5
f 506/2/5 501/2/5 505/2/5
f 507/2/5 503/2/5 502/2/5
f 508/2/5 503/2/5 507/2/5
f 511/18/5 510/18/5 509/18/5
f 512/18/5 510/18/5 511/18/5
f 513/1/5 512/1/5 511/1/5
f 514/1/5 512/1/5 513/1/5
f 515/4/5 514/4/5 513/4/5
f 516/4/5 514/4/5 515/4/5
f 517/4/5 514/4/5 516/4/5
f 518/2/5 517/2/5 516/2/5
f 519/2/5 517/2/5 518/2/5
f 526/2/5 521/2/5 520/2/5
f 526/2/5 525/2/5 524/2/5
f 526/2/5 524/2/5 523/2/5
f 526/2/5 523/2/5 522/2/5
f 526/2/5 522/2/5 521/2/5
f 527/2/5 525/2/5 526/2/5
f 532/2/5 529/2/5 528/2/5
f 533/2/5 529/2/5 532/2/5
f 534/2/5 531/2/5 530/2/5
f 535/2/5 531/2/5 534/2/5
f 540/2/5 537/2/5 536/2/5
f 541/2/5 537/2/5 540/2/5
f 542/2/5 539/2/5 538/2/5
f 543/2/5 539/2/5 542/2/5
f 548/2/5 545/2/5 544/2/5
f 549/2/5 545/2/5 548/2/5
f 550/2/5 547/2/5 546/2/5
f 551/2/5 547/2/5 550/2/5
f 556/7/5 553/7/5 552/7/5
f 556/7/5 555/7/5 554/7/5
f 556/7/5 554/7/5 553/7/5
f 557/7/5 555/7/5 556/7/5
f 560/2/5 559/2/5 558/2/5
f 561/2/5 559/2/5 560/2/5
f 562/10/6 563/10/6 566/10/6
f 566/10/6 563/10/6 567/10/6
f 564/10/6 565/10/6 568/10/6
f 568/10/6 565/10/6 569/10/6
f 570/10/6 571/10/6 574/10/6
f 574/10/6 571/10/6 575/10/6
f 572/10/6 573/10/6 576/10/6
f 576/10/6 573/10/6 577/10/6
f 578/4/6 579/4/6 582/4/6
f 582/4/6 579/4/6 583/4/6
f 580/4/6 581/4/6 584/4/6
f 584/4/6 581/4/6 585/4/6
f 586/2/6 587/2/6 588/2/6
f 588/2/6 587/2/6 589/2/6
f 590/1/6 591/1/6 592/1/6
f 592/1/6 591/1/6 593/1/6
f 592/4/6 593/4/6 594/4/6
f 594/4/6 593/4/6 595/4/6
f 596/18/6 597/18/6 600/18/6
f 600/18/6 597/18/6 601/18/6
f 598/18/6 599/18/6 602/18/6
f 602/18/6 599/18/6 603/18/6
f 604/2/6 605/2/6 608/2/6
f 606/2/6 607/2/6 609/2/6
f 604/2/6 608/2/6 610/2/6
f 608/2/6 609/2/6 610/2/6
f 609/2/6 607/2/6 611/2/6
f 610/2/6 609/2/6 611/2/6
f 612/6/6 613/6/6 616/6/6
f 614/6/6 615/6/6 616/6/6
f 613/6/6 614/6/6 616/6/6
f 616/6/6 615/6/6 617/6/6
f 618/14/6 619/14/6 620/14/6
f 620/14/6 619/14/6 621/14/6
f 622/2/6 623/2/6 626/2/6
f 626/2/6 623/2/6 627/2/6
f 624/2/6 625/2/6 628/2/6
f 628/2/6 625/2/6 629/2/6
f 630/2/6 631/2/6 632/2/6
f 632/2/6 631/2/6 633/2/6
