# MagicaVoxel @ Ephtracy

# group
g Rebels_chair

# material
mtllib Rebels_chair.mtl
usemtl palette

# normals
vn -1 0 0
vn 1 0 0
vn 0 0 1
vn 0 0 -1
vn 0 -1 0
vn 0 1 0

# texcoords
vt 0.0332031 0.5
vt 0.419922 0.5
vt 0.556641 0.5
vt 0.798828 0.5
vt 0.822266 0.5
vt 0.841797 0.5
vt 0.994141 0.5

# verts
v -10 0 -0
v -10 0 -20
v -10 4 -0
v -10 4 -3
v -10 12 -19
v -10 12 -20
v -10 13 -3
v -10 13 -9
v -10 13 -19
v -10 13 -20
v -10 20 -9
v -10 20 -17
v -10 22 -17
v -10 22 -20
v -9 22 -17
v -9 22 -20
v -9 24 -17
v -9 24 -20
v -8 24 -17
v -8 24 -20
v -8 26 -17
v -8 26 -20
v -7 26 -17
v -7 26 -20
v -7 28 -17
v -7 28 -20
v -6 28 -17
v -6 28 -20
v -6 30 -17
v -6 30 -20
v -2 10 -17
v -2 10 -18
v -2 14 -17
v -2 14 -18
v -2 16 -17
v -2 16 -18
v -2 18 -17
v -2 18 -18
v -1 14 -17
v -1 14 -18
v -1 15 -17
v -1 15 -18
v 0 13 -17
v 0 13 -18
v 0 14 -17
v 0 14 -18
v 1 12 -17
v 1 12 -18
v 1 13 -17
v 1 13 -18
v 1 22 -17
v 1 22 -20
v 1 24 -17
v 1 24 -20
v 2 11 -17
v 2 11 -18
v 2 12 -17
v 2 12 -18
v 2 24 -17
v 2 24 -20
v 2 26 -17
v 2 26 -20
v 3 10 -17
v 3 10 -18
v 3 11 -17
v 3 11 -18
v 3 15 -17
v 3 15 -18
v 3 19 -17
v 3 19 -18
v 3 26 -17
v 3 26 -20
v 3 28 -17
v 3 28 -20
v 4 28 -17
v 4 28 -20
v 4 30 -17
v 4 30 -20
v 7 4 -4
v 7 4 -5
v 7 6 -5
v 7 7 -5
v 7 7 -17
v 7 13 -4
v 7 13 -9
v 7 20 -9
v 7 20 -17
v -7 4 -3
v -7 4 -5
v -7 6 -5
v -7 7 -5
v -7 7 -17
v -7 13 -3
v -7 13 -9
v -7 20 -9
v -7 20 -17
v -4 28 -17
v -4 28 -20
v -4 30 -17
v -4 30 -20
v -3 10 -17
v -3 10 -18
v -3 19 -17
v -3 19 -18
v -3 26 -17
v -3 26 -20
v -3 28 -17
v -3 28 -20
v -2 24 -17
v -2 24 -20
v -2 26 -17
v -2 26 -20
v -1 13 -17
v -1 13 -18
v -1 14 -17
v -1 14 -18
v -1 22 -17
v -1 22 -20
v -1 24 -17
v -1 24 -20
v 0 12 -17
v 0 12 -18
v 0 13 -17
v 0 13 -18
v 1 11 -17
v 1 11 -18
v 1 12 -17
v 1 12 -18
v 2 10 -17
v 2 10 -18
v 2 11 -17
v 2 11 -18
v 2 16 -17
v 2 16 -18
v 2 18 -17
v 2 18 -18
v 6 28 -17
v 6 28 -20
v 6 30 -17
v 6 30 -20
v 7 26 -17
v 7 26 -20
v 7 28 -17
v 7 28 -20
v 8 24 -17
v 8 24 -20
v 8 26 -17
v 8 26 -20
v 9 22 -17
v 9 22 -20
v 9 24 -17
v 9 24 -20
v 10 0 -0
v 10 0 -20
v 10 4 -0
v 10 4 -4
v 10 12 -19
v 10 12 -20
v 10 13 -4
v 10 13 -9
v 10 19 -19
v 10 19 -20
v 10 20 -9
v 10 20 -17
v 10 22 -17
v 10 22 -20
v -10 0 -0
v -10 4 -0
v -9 3 -0
v -9 4 -0
v 9 3 -0
v 9 4 -0
v 10 0 -0
v 10 4 -0
v -10 4 -3
v -10 13 -3
v -9 4 -3
v -9 13 -3
v -7 4 -3
v -7 13 -3
v 7 4 -4
v 7 13 -4
v 9 4 -4
v 9 13 -4
v 10 4 -4
v 10 13 -4
v -7 4 -5
v -7 6 -5
v -7 7 -5
v 7 4 -5
v 7 6 -5
v 7 7 -5
v -10 13 -9
v -10 20 -9
v -9 13 -9
v -8 13 -9
v -8 20 -9
v -7 13 -9
v -7 20 -9
v 7 13 -9
v 7 20 -9
v 8 13 -9
v 8 20 -9
v 9 13 -9
v 10 13 -9
v 10 20 -9
v -10 20 -17
v -10 22 -17
v -9 20 -17
v -9 22 -17
v -9 24 -17
v -8 20 -17
v -8 22 -17
v -8 24 -17
v -8 26 -17
v -7 7 -17
v -7 20 -17
v -7 24 -17
v -7 26 -17
v -7 28 -17
v -6 26 -17
v -6 28 -17
v -6 30 -17
v -4 26 -17
v -4 28 -17
v -4 30 -17
v -3 10 -17
v -3 19 -17
v -3 24 -17
v -3 26 -17
v -3 28 -17
v -2 10 -17
v -2 14 -17
v -2 16 -17
v -2 18 -17
v -2 22 -17
v -2 24 -17
v -2 26 -17
v -1 13 -17
v -1 14 -17
v -1 15 -17
v -1 20 -17
v -1 22 -17
v -1 24 -17
v 0 12 -17
v 0 13 -17
v 0 14 -17
v 1 11 -17
v 1 12 -17
v 1 13 -17
v 1 20 -17
v 1 22 -17
v 1 24 -17
v 2 10 -17
v 2 11 -17
v 2 12 -17
v 2 16 -17
v 2 18 -17
v 2 22 -17
v 2 24 -17
v 2 26 -17
v 3 10 -17
v 3 11 -17
v 3 15 -17
v 3 19 -17
v 3 24 -17
v 3 26 -17
v 3 28 -17
v 4 26 -17
v 4 28 -17
v 4 30 -17
v 6 26 -17
v 6 28 -17
v 6 30 -17
v 7 7 -17
v 7 20 -17
v 7 24 -17
v 7 26 -17
v 7 28 -17
v 8 20 -17
v 8 22 -17
v 8 24 -17
v 8 26 -17
v 9 20 -17
v 9 22 -17
v 9 24 -17
v 10 20 -17
v 10 22 -17
v -3 10 -18
v -3 19 -18
v -2 10 -18
v -2 14 -18
v -2 16 -18
v -2 18 -18
v -1 13 -18
v -1 14 -18
v -1 15 -18
v 0 12 -18
v 0 13 -18
v 0 14 -18
v 1 11 -18
v 1 12 -18
v 1 13 -18
v 2 10 -18
v 2 11 -18
v 2 12 -18
v 2 16 -18
v 2 18 -18
v 3 10 -18
v 3 11 -18
v 3 15 -18
v 3 19 -18
v -10 0 -20
v -10 12 -20
v -10 13 -20
v -10 22 -20
v -9 20 -20
v -9 22 -20
v -9 24 -20
v -8 13 -20
v -8 19 -20
v -8 22 -20
v -8 24 -20
v -8 26 -20
v -7 12 -20
v -7 19 -20
v -7 24 -20
v -7 26 -20
v -7 28 -20
v -6 12 -20
v -6 13 -20
v -6 15 -20
v -6 16 -20
v -6 18 -20
v -6 19 -20
v -6 26 -20
v -6 28 -20
v -6 30 -20
v -4 13 -20
v -4 15 -20
v -4 16 -20
v -4 18 -20
v -4 26 -20
v -4 28 -20
v -4 30 -20
v -3 12 -20
v -3 19 -20
v -3 24 -20
v -3 26 -20
v -3 28 -20
v -2 12 -20
v -2 19 -20
v -2 22 -20
v -2 24 -20
v -2 26 -20
v -1 13 -20
v -1 15 -20
v -1 16 -20
v -1 18 -20
v -1 20 -20
v -1 22 -20
v -1 24 -20
v 0 13 -20
v 0 15 -20
v 0 16 -20
v 0 18 -20
v 1 12 -20
v 1 19 -20
v 1 20 -20
v 1 22 -20
v 1 24 -20
v 2 12 -20
v 2 13 -20
v 2 15 -20
v 2 16 -20
v 2 18 -20
v 2 19 -20
v 2 22 -20
v 2 24 -20
v 2 26 -20
v 3 24 -20
v 3 26 -20
v 3 28 -20
v 4 13 -20
v 4 15 -20
v 4 16 -20
v 4 18 -20
v 4 26 -20
v 4 28 -20
v 4 30 -20
v 5 12 -20
v 5 19 -20
v 6 12 -20
v 6 14 -20
v 6 15 -20
v 6 19 -20
v 6 26 -20
v 6 28 -20
v 6 30 -20
v 7 12 -20
v 7 14 -20
v 7 15 -20
v 7 16 -20
v 7 18 -20
v 7 24 -20
v 7 26 -20
v 7 28 -20
v 8 14 -20
v 8 15 -20
v 8 22 -20
v 8 24 -20
v 8 26 -20
v 9 12 -20
v 9 15 -20
v 9 16 -20
v 9 18 -20
v 9 20 -20
v 9 22 -20
v 9 24 -20
v 10 0 -20
v 10 12 -20
v 10 19 -20
v 10 22 -20
v -10 0 -0
v 10 0 -0
v -9 0 -1
v 9 0 -1
v -9 0 -19
v 9 0 -19
v -10 0 -20
v 10 0 -20
v 2 11 -17
v 3 11 -17
v 2 11 -18
v 3 11 -18
v 1 12 -17
v 2 12 -17
v 1 12 -18
v 2 12 -18
v 0 13 -17
v 1 13 -17
v 0 13 -18
v 1 13 -18
v -1 14 -17
v 0 14 -17
v -1 14 -18
v 0 14 -18
v -2 16 -17
v 2 16 -17
v -2 16 -18
v 2 16 -18
v -3 19 -17
v 3 19 -17
v -3 19 -18
v 3 19 -18
v -10 4 -0
v -9 4 -0
v 9 4 -0
v 10 4 -0
v -10 4 -3
v -9 4 -3
v -7 4 -3
v 7 4 -4
v 9 4 -4
v 10 4 -4
v -7 4 -5
v 7 4 -5
v -7 7 -5
v 7 7 -5
v -7 7 -17
v 7 7 -17
v -3 10 -17
v -2 10 -17
v 2 10 -17
v 3 10 -17
v -3 10 -18
v -2 10 -18
v 2 10 -18
v 3 10 -18
v 1 11 -17
v 2 11 -17
v 1 11 -18
v 2 11 -18
v 0 12 -17
v 1 12 -17
v 0 12 -18
v 1 12 -18
v -10 13 -3
v -9 13 -3
v -7 13 -3
v 7 13 -4
v 9 13 -4
v 10 13 -4
v -10 13 -9
v -9 13 -9
v -8 13 -9
v -7 13 -9
v 7 13 -9
v 8 13 -9
v 9 13 -9
v 10 13 -9
v -1 13 -17
v 0 13 -17
v -1 13 -18
v 0 13 -18
v -2 14 -17
v -1 14 -17
v -2 14 -18
v -1 14 -18
v -1 15 -17
v 3 15 -17
v -1 15 -18
v 3 15 -18
v -2 18 -17
v 2 18 -17
v -2 18 -18
v 2 18 -18
v -10 20 -9
v -8 20 -9
v -7 20 -9
v 7 20 -9
v 8 20 -9
v 10 20 -9
v -10 20 -17
v -9 20 -17
v -8 20 -17
v -7 20 -17
v 7 20 -17
v 8 20 -17
v 9 20 -17
v 10 20 -17
v -10 22 -17
v -9 22 -17
v -1 22 -17
v 1 22 -17
v 9 22 -17
v 10 22 -17
v -10 22 -20
v -9 22 -20
v -1 22 -20
v 1 22 -20
v 9 22 -20
v 10 22 -20
v -9 24 -17
v -8 24 -17
v -2 24 -17
v -1 24 -17
v 1 24 -17
v 2 24 -17
v 8 24 -17
v 9 24 -17
v -9 24 -20
v -8 24 -20
v -2 24 -20
v -1 24 -20
v 1 24 -20
v 2 24 -20
v 8 24 -20
v 9 24 -20
v -8 26 -17
v -7 26 -17
v -3 26 -17
v -2 26 -17
v 2 26 -17
v 3 26 -17
v 7 26 -17
v 8 26 -17
v -8 26 -20
v -7 26 -20
v -3 26 -20
v -2 26 -20
v 2 26 -20
v 3 26 -20
v 7 26 -20
v 8 26 -20
v -7 28 -17
v -6 28 -17
v -4 28 -17
v -3 28 -17
v 3 28 -17
v 4 28 -17
v 6 28 -17
v 7 28 -17
v -7 28 -20
v -6 28 -20
v -4 28 -20
v -3 28 -20
v 3 28 -20
v 4 28 -20
v 6 28 -20
v 7 28 -20
v -6 30 -17
v -4 30 -17
v 4 30 -17
v 6 30 -17
v -6 30 -20
v -4 30 -20
v 4 30 -20
v 6 30 -20

# faces
f 3/1/1 2/1/1 1/1/1
f 4/1/1 2/1/1 3/1/1
f 5/1/1 2/1/1 4/1/1
f 6/1/1 2/1/1 5/1/1
f 7/1/1 5/1/1 4/1/1
f 8/1/1 5/1/1 7/1/1
f 9/6/1 6/6/1 5/6/1
f 9/1/1 5/1/1 8/1/1
f 10/6/1 6/6/1 9/6/1
f 11/1/1 9/1/1 8/1/1
f 11/1/1 10/1/1 9/1/1
f 12/1/1 10/1/1 11/1/1
f 13/1/1 10/1/1 12/1/1
f 14/1/1 10/1/1 13/1/1
f 17/1/1 16/1/1 15/1/1
f 18/1/1 16/1/1 17/1/1
f 21/1/1 20/1/1 19/1/1
f 22/1/1 20/1/1 21/1/1
f 25/1/1 24/1/1 23/1/1
f 26/1/1 24/1/1 25/1/1
f 29/1/1 28/1/1 27/1/1
f 30/1/1 28/1/1 29/1/1
f 33/1/1 32/1/1 31/1/1
f 34/1/1 32/1/1 33/1/1
f 37/1/1 36/1/1 35/1/1
f 38/1/1 36/1/1 37/1/1
f 41/1/1 40/1/1 39/1/1
f 42/1/1 40/1/1 41/1/1
f 45/1/1 44/1/1 43/1/1
f 46/1/1 44/1/1 45/1/1
f 49/1/1 48/1/1 47/1/1
f 50/1/1 48/1/1 49/1/1
f 53/1/1 52/1/1 51/1/1
f 54/1/1 52/1/1 53/1/1
f 57/1/1 56/1/1 55/1/1
f 58/1/1 56/1/1 57/1/1
f 61/1/1 60/1/1 59/1/1
f 62/1/1 60/1/1 61/1/1
f 65/1/1 64/1/1 63/1/1
f 66/1/1 64/1/1 65/1/1
f 69/1/1 68/1/1 67/1/1
f 70/1/1 68/1/1 69/1/1
f 73/1/1 72/1/1 71/1/1
f 74/1/1 72/1/1 73/1/1
f 77/1/1 76/1/1 75/1/1
f 78/1/1 76/1/1 77/1/1
f 81/2/1 80/2/1 79/2/1
f 82/2/1 81/2/1 79/2/1
f 84/2/1 82/2/1 79/2/1
f 84/2/1 83/2/1 82/2/1
f 85/2/1 83/2/1 84/2/1
f 86/2/1 83/2/1 85/2/1
f 87/2/1 83/2/1 86/2/1
f 88/2/2 89/2/2 90/2/2
f 88/2/2 90/2/2 91/2/2
f 88/2/2 91/2/2 93/2/2
f 91/2/2 92/2/2 93/2/2
f 93/2/2 92/2/2 94/2/2
f 94/2/2 92/2/2 95/2/2
f 95/2/2 92/2/2 96/2/2
f 97/1/2 98/1/2 99/1/2
f 99/1/2 98/1/2 100/1/2
f 101/1/2 102/1/2 103/1/2
f 103/1/2 102/1/2 104/1/2
f 105/1/2 106/1/2 107/1/2
f 107/1/2 106/1/2 108/1/2
f 109/1/2 110/1/2 111/1/2
f 111/1/2 110/1/2 112/1/2
f 113/1/2 114/1/2 115/1/2
f 115/1/2 114/1/2 116/1/2
f 117/1/2 118/1/2 119/1/2
f 119/1/2 118/1/2 120/1/2
f 121/1/2 122/1/2 123/1/2
f 123/1/2 122/1/2 124/1/2
f 125/1/2 126/1/2 127/1/2
f 127/1/2 126/1/2 128/1/2
f 129/1/2 130/1/2 131/1/2
f 131/1/2 130/1/2 132/1/2
f 133/1/2 134/1/2 135/1/2
f 135/1/2 134/1/2 136/1/2
f 137/1/2 138/1/2 139/1/2
f 139/1/2 138/1/2 140/1/2
f 141/1/2 142/1/2 143/1/2
f 143/1/2 142/1/2 144/1/2
f 145/1/2 146/1/2 147/1/2
f 147/1/2 146/1/2 148/1/2
f 149/1/2 150/1/2 151/1/2
f 151/1/2 150/1/2 152/1/2
f 153/1/2 154/1/2 155/1/2
f 155/1/2 154/1/2 156/1/2
f 156/1/2 154/1/2 157/1/2
f 157/1/2 154/1/2 158/1/2
f 156/1/2 157/1/2 159/1/2
f 159/1/2 157/1/2 160/1/2
f 157/6/2 158/6/2 161/6/2
f 160/1/2 157/1/2 161/1/2
f 161/6/2 158/6/2 162/6/2
f 160/1/2 161/1/2 163/1/2
f 161/1/2 162/1/2 163/1/2
f 163/1/2 162/1/2 164/1/2
f 164/1/2 162/1/2 165/1/2
f 165/1/2 162/1/2 166/1/2
f 169/1/3 168/1/3 167/1/3
f 170/1/3 168/1/3 169/1/3
f 171/1/3 169/1/3 167/1/3
f 171/5/3 170/5/3 169/5/3
f 172/5/3 170/5/3 171/5/3
f 173/1/3 171/1/3 167/1/3
f 173/1/3 172/1/3 171/1/3
f 174/1/3 172/1/3 173/1/3
f 177/1/3 176/1/3 175/1/3
f 178/1/3 176/1/3 177/1/3
f 179/2/3 178/2/3 177/2/3
f 180/2/3 178/2/3 179/2/3
f 183/2/3 182/2/3 181/2/3
f 184/2/3 182/2/3 183/2/3
f 185/1/3 184/1/3 183/1/3
f 186/1/3 184/1/3 185/1/3
f 190/2/3 188/2/3 187/2/3
f 191/5/3 189/5/3 188/5/3
f 191/2/3 188/2/3 190/2/3
f 192/5/3 189/5/3 191/5/3
f 195/1/3 194/1/3 193/1/3
f 196/1/3 194/1/3 195/1/3
f 197/1/3 194/1/3 196/1/3
f 198/2/3 197/2/3 196/2/3
f 199/2/3 197/2/3 198/2/3
f 202/2/3 201/2/3 200/2/3
f 203/2/3 201/2/3 202/2/3
f 204/1/3 203/1/3 202/1/3
f 205/1/3 203/1/3 204/1/3
f 206/1/3 203/1/3 205/1/3
f 209/1/3 208/1/3 207/1/3
f 210/1/3 208/1/3 209/1/3
f 212/4/3 210/4/3 209/4/3
f 213/1/3 211/1/3 210/1/3
f 213/4/3 210/4/3 212/4/3
f 214/1/3 211/1/3 213/1/3
f 217/4/3 213/4/3 212/4/3
f 217/4/3 214/4/3 213/4/3
f 218/1/3 215/1/3 214/1/3
f 218/4/3 214/4/3 217/4/3
f 219/1/3 215/1/3 218/1/3
f 221/4/3 218/4/3 217/4/3
f 221/1/3 220/1/3 219/1/3
f 221/4/3 219/4/3 218/4/3
f 222/1/3 220/1/3 221/1/3
f 224/4/3 221/4/3 217/4/3
f 224/4/3 222/4/3 221/4/3
f 225/1/3 223/1/3 222/1/3
f 225/4/3 222/4/3 224/4/3
f 226/1/3 223/1/3 225/1/3
f 227/1/3 217/1/3 216/1/3
f 228/1/3 217/1/3 227/1/3
f 229/4/3 224/4/3 217/4/3
f 230/1/3 225/1/3 224/1/3
f 230/4/3 224/4/3 229/4/3
f 231/1/3 225/1/3 230/1/3
f 232/1/3 227/1/3 216/1/3
f 236/4/3 229/4/3 217/4/3
f 237/1/3 230/1/3 229/1/3
f 237/4/3 229/4/3 236/4/3
f 238/1/3 230/1/3 237/1/3
f 239/1/3 233/1/3 232/1/3
f 240/1/3 233/1/3 239/1/3
f 242/1/3 217/1/3 228/1/3
f 242/4/3 236/4/3 217/4/3
f 243/1/3 237/1/3 236/1/3
f 243/4/3 236/4/3 242/4/3
f 244/1/3 237/1/3 243/1/3
f 245/1/3 239/1/3 232/1/3
f 246/1/3 239/1/3 245/1/3
f 247/1/3 241/1/3 240/1/3
f 248/1/3 245/1/3 232/1/3
f 249/1/3 245/1/3 248/1/3
f 250/1/3 247/1/3 246/1/3
f 251/1/3 242/1/3 228/1/3
f 251/1/3 243/1/3 242/1/3
f 252/1/3 243/1/3 251/1/3
f 254/1/3 232/1/3 216/1/3
f 254/1/3 248/1/3 232/1/3
f 255/1/3 248/1/3 254/1/3
f 256/1/3 250/1/3 249/1/3
f 257/1/3 235/1/3 234/1/3
f 258/1/3 235/1/3 257/1/3
f 259/1/3 253/1/3 252/1/3
f 259/4/3 252/4/3 251/4/3
f 260/1/3 253/1/3 259/1/3
f 262/1/3 254/1/3 216/1/3
f 263/1/3 256/1/3 255/1/3
f 264/1/3 247/1/3 250/1/3
f 264/1/3 241/1/3 247/1/3
f 264/1/3 256/1/3 263/1/3
f 264/1/3 250/1/3 256/1/3
f 265/1/3 251/1/3 228/1/3
f 266/1/3 261/1/3 260/1/3
f 266/4/3 260/4/3 259/4/3
f 267/1/3 261/1/3 266/1/3
f 269/4/3 267/4/3 266/4/3
f 269/1/3 268/1/3 267/1/3
f 270/1/3 268/1/3 269/1/3
f 272/4/3 270/4/3 269/4/3
f 272/4/3 269/4/3 266/4/3
f 273/1/3 271/1/3 270/1/3
f 273/4/3 270/4/3 272/4/3
f 274/1/3 271/1/3 273/1/3
f 275/1/3 265/1/3 264/1/3
f 275/1/3 262/1/3 216/1/3
f 275/1/3 263/1/3 262/1/3
f 275/1/3 264/1/3 263/1/3
f 276/4/3 272/4/3 266/4/3
f 276/1/3 265/1/3 275/1/3
f 276/1/3 251/1/3 265/1/3
f 276/4/3 266/4/3 259/4/3
f 276/4/3 259/4/3 251/4/3
f 277/4/3 272/4/3 276/4/3
f 278/1/3 273/1/3 272/1/3
f 278/4/3 272/4/3 277/4/3
f 279/1/3 273/1/3 278/1/3
f 280/4/3 277/4/3 276/4/3
f 281/4/3 277/4/3 280/4/3
f 282/1/3 278/1/3 277/1/3
f 282/4/3 277/4/3 281/4/3
f 283/1/3 278/1/3 282/1/3
f 284/4/3 281/4/3 280/4/3
f 285/1/3 282/1/3 281/1/3
f 285/4/3 281/4/3 284/4/3
f 286/1/3 282/1/3 285/1/3
f 287/1/3 285/1/3 284/1/3
f 288/1/3 285/1/3 287/1/3
f 291/2/3 290/2/3 289/2/3
f 292/2/3 290/2/3 291/2/3
f 293/2/3 290/2/3 292/2/3
f 294/2/3 290/2/3 293/2/3
f 296/2/3 293/2/3 292/2/3
f 297/2/3 293/2/3 296/2/3
f 299/2/3 296/2/3 295/2/3
f 300/2/3 296/2/3 299/2/3
f 302/2/3 299/2/3 298/2/3
f 303/2/3 299/2/3 302/2/3
f 305/2/3 302/2/3 301/2/3
f 306/2/3 302/2/3 305/2/3
f 307/2/3 293/2/3 297/2/3
f 308/2/3 290/2/3 294/2/3
f 309/2/3 305/2/3 304/2/3
f 310/2/3 305/2/3 309/2/3
f 311/2/3 307/2/3 297/2/3
f 311/2/3 308/2/3 307/2/3
f 312/2/3 290/2/3 308/2/3
f 312/2/3 308/2/3 311/2/3
f 315/1/4 316/1/4 317/1/4
f 317/1/4 316/1/4 318/1/4
f 314/6/4 315/6/4 320/6/4
f 315/1/4 317/1/4 320/1/4
f 320/1/4 317/1/4 321/1/4
f 318/1/4 319/1/4 322/1/4
f 317/4/4 318/4/4 322/4/4
f 322/1/4 319/1/4 323/1/4
f 313/1/4 314/1/4 325/1/4
f 320/6/4 321/6/4 325/6/4
f 314/6/4 320/6/4 325/6/4
f 321/1/4 317/1/4 326/1/4
f 325/6/4 321/6/4 326/6/4
f 323/1/4 324/1/4 327/1/4
f 322/4/4 323/4/4 327/4/4
f 327/1/4 324/1/4 328/1/4
f 313/1/4 325/1/4 330/1/4
f 325/1/4 326/1/4 330/1/4
f 330/1/4 326/1/4 331/1/4
f 331/1/4 326/1/4 332/1/4
f 332/1/4 326/1/4 333/1/4
f 333/1/4 326/1/4 334/1/4
f 326/1/4 317/1/4 335/1/4
f 334/1/4 326/1/4 335/1/4
f 328/1/4 329/1/4 336/1/4
f 327/4/4 328/4/4 336/4/4
f 336/1/4 329/1/4 337/1/4
f 330/6/4 331/6/4 339/6/4
f 331/1/4 332/1/4 339/1/4
f 332/6/4 333/6/4 340/6/4
f 339/1/4 332/1/4 340/1/4
f 333/1/4 334/1/4 341/1/4
f 340/6/4 333/6/4 341/6/4
f 334/6/4 335/6/4 342/6/4
f 341/1/4 334/1/4 342/1/4
f 336/4/4 337/4/4 343/4/4
f 327/4/4 336/4/4 343/4/4
f 337/1/4 338/1/4 344/1/4
f 343/4/4 337/4/4 344/4/4
f 344/1/4 338/1/4 345/1/4
f 339/6/4 340/6/4 346/6/4
f 340/6/4 341/6/4 346/6/4
f 313/1/4 330/1/4 346/1/4
f 341/6/4 342/6/4 346/6/4
f 330/6/4 339/6/4 346/6/4
f 335/1/4 317/1/4 347/1/4
f 346/6/4 342/6/4 347/6/4
f 342/6/4 335/6/4 347/6/4
f 322/4/4 327/4/4 348/4/4
f 327/4/4 343/4/4 348/4/4
f 343/1/4 344/1/4 349/1/4
f 348/4/4 343/4/4 349/4/4
f 349/1/4 344/1/4 350/1/4
f 313/1/4 346/1/4 351/1/4
f 346/1/4 347/1/4 351/1/4
f 347/1/4 317/1/4 352/1/4
f 351/1/4 347/1/4 352/1/4
f 322/4/4 348/4/4 353/4/4
f 317/4/4 322/4/4 353/4/4
f 348/1/4 349/1/4 354/1/4
f 353/4/4 348/4/4 354/4/4
f 354/1/4 349/1/4 355/1/4
f 351/6/4 352/6/4 356/6/4
f 356/6/4 352/6/4 357/6/4
f 357/6/4 352/6/4 358/6/4
f 358/6/4 352/6/4 359/6/4
f 352/1/4 317/1/4 360/1/4
f 317/4/4 353/4/4 360/4/4
f 353/1/4 354/1/4 361/1/4
f 360/4/4 353/4/4 361/4/4
f 361/1/4 354/1/4 362/1/4
f 351/6/4 356/6/4 363/6/4
f 356/1/4 357/1/4 363/1/4
f 357/6/4 358/6/4 364/6/4
f 363/1/4 357/1/4 364/1/4
f 358/1/4 359/1/4 365/1/4
f 364/6/4 358/6/4 365/6/4
f 359/6/4 352/6/4 366/6/4
f 365/1/4 359/1/4 366/1/4
f 364/6/4 365/6/4 367/6/4
f 313/1/4 351/1/4 367/1/4
f 365/6/4 366/6/4 367/6/4
f 351/6/4 363/6/4 367/6/4
f 363/6/4 364/6/4 367/6/4
f 366/6/4 352/6/4 368/6/4
f 367/6/4 366/6/4 368/6/4
f 360/1/4 361/1/4 368/1/4
f 352/1/4 360/1/4 368/1/4
f 368/1/4 361/1/4 369/1/4
f 369/1/4 361/1/4 370/1/4
f 313/1/4 367/1/4 372/1/4
f 367/1/4 368/1/4 372/1/4
f 368/1/4 369/1/4 372/1/4
f 372/1/4 369/1/4 373/1/4
f 373/1/4 369/1/4 374/1/4
f 374/1/4 369/1/4 375/1/4
f 375/1/4 369/1/4 376/1/4
f 376/1/4 369/1/4 377/1/4
f 370/1/4 371/1/4 378/1/4
f 369/4/4 370/4/4 378/4/4
f 378/1/4 371/1/4 379/1/4
f 378/4/4 379/4/4 381/4/4
f 379/1/4 380/1/4 381/1/4
f 381/1/4 380/1/4 382/1/4
f 372/6/4 373/6/4 384/6/4
f 373/1/4 374/1/4 384/1/4
f 374/6/4 375/6/4 385/6/4
f 384/1/4 374/1/4 385/1/4
f 375/1/4 376/1/4 386/1/4
f 385/6/4 375/6/4 386/6/4
f 376/6/4 377/6/4 387/6/4
f 386/1/4 376/1/4 387/1/4
f 381/4/4 382/4/4 388/4/4
f 382/1/4 383/1/4 388/1/4
f 388/1/4 383/1/4 389/1/4
f 385/6/4 386/6/4 391/6/4
f 313/1/4 372/1/4 391/1/4
f 386/6/4 387/6/4 391/6/4
f 384/6/4 385/6/4 391/6/4
f 372/6/4 384/6/4 391/6/4
f 377/1/4 369/1/4 392/1/4
f 391/6/4 387/6/4 392/6/4
f 387/6/4 377/6/4 392/6/4
f 313/1/4 391/1/4 393/1/4
f 391/1/4 392/1/4 393/1/4
f 393/1/4 392/1/4 394/1/4
f 394/1/4 392/1/4 395/1/4
f 392/1/4 369/1/4 396/1/4
f 395/1/4 392/1/4 396/1/4
f 388/4/4 389/4/4 397/4/4
f 381/4/4 388/4/4 397/4/4
f 389/1/4 390/1/4 398/1/4
f 397/4/4 389/4/4 398/4/4
f 398/1/4 390/1/4 399/1/4
f 313/1/4 393/1/4 400/1/4
f 393/6/4 394/6/4 400/6/4
f 394/1/4 395/1/4 401/1/4
f 400/6/4 394/6/4 401/6/4
f 395/6/4 396/6/4 402/6/4
f 401/1/4 395/1/4 402/1/4
f 402/6/4 396/6/4 403/6/4
f 403/6/4 396/6/4 404/6/4
f 378/4/4 381/4/4 405/4/4
f 381/4/4 397/4/4 405/4/4
f 397/1/4 398/1/4 406/1/4
f 405/4/4 397/4/4 406/4/4
f 406/1/4 398/1/4 407/1/4
f 400/1/4 401/1/4 408/1/4
f 401/6/4 402/6/4 408/6/4
f 402/6/4 403/6/4 408/6/4
f 408/6/4 403/6/4 409/6/4
f 369/4/4 378/4/4 410/4/4
f 378/4/4 405/4/4 410/4/4
f 405/1/4 406/1/4 411/1/4
f 410/4/4 405/4/4 411/4/4
f 411/1/4 406/1/4 412/1/4
f 313/1/4 400/1/4 413/1/4
f 408/1/4 409/1/4 413/1/4
f 400/1/4 408/1/4 413/1/4
f 409/6/4 403/6/4 414/6/4
f 413/1/4 409/1/4 414/1/4
f 403/1/4 404/1/4 415/1/4
f 414/6/4 403/6/4 415/6/4
f 404/6/4 396/6/4 416/6/4
f 415/1/4 404/1/4 416/1/4
f 396/1/4 369/1/4 417/1/4
f 369/4/4 410/4/4 417/4/4
f 410/1/4 411/1/4 418/1/4
f 417/4/4 410/4/4 418/4/4
f 418/1/4 411/1/4 419/1/4
f 313/1/4 413/1/4 420/1/4
f 414/6/4 415/6/4 421/6/4
f 420/1/4 413/1/4 421/1/4
f 413/6/4 414/6/4 421/6/4
f 415/6/4 416/6/4 421/6/4
f 416/6/4 396/6/4 422/6/4
f 421/6/4 416/6/4 422/6/4
f 417/1/4 418/1/4 422/1/4
f 396/1/4 417/1/4 422/1/4
f 422/1/4 418/1/4 423/1/4
f 426/1/5 425/1/5 424/1/5
f 427/1/5 425/1/5 426/1/5
f 428/1/5 426/1/5 424/1/5
f 428/7/5 427/7/5 426/7/5
f 429/1/5 425/1/5 427/1/5
f 429/7/5 427/7/5 428/7/5
f 430/1/5 428/1/5 424/1/5
f 430/1/5 429/1/5 428/1/5
f 431/1/5 425/1/5 429/1/5
f 431/1/5 429/1/5 430/1/5
f 434/1/5 433/1/5 432/1/5
f 435/1/5 433/1/5 434/1/5
f 438/1/5 437/1/5 436/1/5
f 439/1/5 437/1/5 438/1/5
f 442/1/5 441/1/5 440/1/5
f 443/1/5 441/1/5 442/1/5
f 446/1/5 445/1/5 444/1/5
f 447/1/5 445/1/5 446/1/5
f 450/1/5 449/1/5 448/1/5
f 451/1/5 449/1/5 450/1/5
f 454/1/5 453/1/5 452/1/5
f 455/1/5 453/1/5 454/1/5
f 456/1/6 457/1/6 460/1/6
f 457/5/6 458/5/6 461/5/6
f 460/1/6 457/1/6 461/1/6
f 461/5/6 458/5/6 462/5/6
f 462/5/6 458/5/6 463/5/6
f 458/1/6 459/1/6 464/1/6
f 463/5/6 458/5/6 464/5/6
f 464/1/6 459/1/6 465/1/6
f 462/5/6 463/5/6 466/5/6
f 466/5/6 463/5/6 467/5/6
f 468/5/6 469/5/6 470/5/6
f 470/5/6 469/5/6 471/5/6
f 472/1/6 473/1/6 476/1/6
f 476/1/6 473/1/6 477/1/6
f 474/1/6 475/1/6 478/1/6
f 478/1/6 475/1/6 479/1/6
f 480/1/6 481/1/6 482/1/6
f 482/1/6 481/1/6 483/1/6
f 484/1/6 485/1/6 486/1/6
f 486/1/6 485/1/6 487/1/6
f 488/1/6 489/1/6 494/1/6
f 489/2/6 490/2/6 495/2/6
f 494/1/6 489/1/6 495/1/6
f 495/2/6 490/2/6 496/2/6
f 496/2/6 490/2/6 497/2/6
f 491/2/6 492/2/6 498/2/6
f 498/2/6 492/2/6 499/2/6
f 492/1/6 493/1/6 500/1/6
f 499/2/6 492/2/6 500/2/6
f 500/1/6 493/1/6 501/1/6
f 502/1/6 503/1/6 504/1/6
f 504/1/6 503/1/6 505/1/6
f 506/1/6 507/1/6 508/1/6
f 508/1/6 507/1/6 509/1/6
f 510/1/6 511/1/6 512/1/6
f 512/1/6 511/1/6 513/1/6
f 514/1/6 515/1/6 516/1/6
f 516/1/6 515/1/6 517/1/6
f 518/1/6 519/1/6 524/1/6
f 524/1/6 519/1/6 525/1/6
f 519/2/6 520/2/6 526/2/6
f 525/1/6 519/1/6 526/1/6
f 526/2/6 520/2/6 527/2/6
f 521/2/6 522/2/6 528/2/6
f 522/1/6 523/1/6 529/1/6
f 528/2/6 522/2/6 529/2/6
f 529/1/6 523/1/6 530/1/6
f 530/1/6 523/1/6 531/1/6
f 532/1/6 533/1/6 538/1/6
f 538/1/6 533/1/6 539/1/6
f 534/1/6 535/1/6 540/1/6
f 540/1/6 535/1/6 541/1/6
f 536/1/6 537/1/6 542/1/6
f 542/1/6 537/1/6 543/1/6
f 544/1/6 545/1/6 552/1/6
f 552/1/6 545/1/6 553/1/6
f 546/1/6 547/1/6 554/1/6
f 554/1/6 547/1/6 555/1/6
f 548/1/6 549/1/6 556/1/6
f 556/1/6 549/1/6 557/1/6
f 550/1/6 551/1/6 558/1/6
f 558/1/6 551/1/6 559/1/6
f 560/1/6 561/1/6 568/1/6
f 568/1/6 561/1/6 569/1/6
f 562/1/6 563/1/6 570/1/6
f 570/1/6 563/1/6 571/1/6
f 564/1/6 565/1/6 572/1/6
f 572/1/6 565/1/6 573/1/6
f 566/1/6 567/1/6 574/1/6
f 574/1/6 567/1/6 575/1/6
f 576/1/6 577/1/6 584/1/6
f 584/1/6 577/1/6 585/1/6
f 578/1/6 579/1/6 586/1/6
f 586/1/6 579/1/6 587/1/6
f 580/1/6 581/1/6 588/1/6
f 588/1/6 581/1/6 589/1/6
f 582/1/6 583/1/6 590/1/6
f 590/1/6 583/1/6 591/1/6
f 592/1/6 593/1/6 596/1/6
f 596/1/6 593/1/6 597/1/6
f 594/1/6 595/1/6 598/1/6
f 598/1/6 595/1/6 599/1/6
