# MagicaVoxel @ Ephtracy

# group
g Form_Zero_card

# material
mtllib Form_Zero_card.mtl
usemtl palette

# normals
vn -1 0 0
vn 1 0 0
vn 0 0 1
vn 0 0 -1
vn 0 -1 0
vn 0 1 0

# texcoords
vt 0.0214844 0.5
vt 0.603516 0.5
vt 0.841797 0.5
vt 0.919922 0.5
vt 0.955078 0.5
vt 0.958984 0.5
vt 0.994141 0.5

# verts
v -28 26 18
v -28 26 14
v -28 26 -14
v -28 26 -18
v -28 30 18
v -28 30 14
v -28 30 -14
v -28 30 -18
v 28 26 18
v 28 26 14
v 28 26 -14
v 28 26 -18
v 28 30 18
v 28 30 14
v 28 30 -14
v 28 30 -18
v -28 26 18
v -28 30 18
v -24 26 18
v -24 30 18
v 24 26 18
v 24 30 18
v 28 26 18
v 28 30 18
v -28 26 -18
v -28 30 -18
v -24 26 -18
v -24 30 -18
v 24 26 -18
v 24 30 -18
v 28 26 -18
v 28 30 -18
v -28 26 18
v -24 26 18
v 24 26 18
v 28 26 18
v -28 26 14
v -24 26 14
v 24 26 14
v 28 26 14
v -28 26 -14
v -24 26 -14
v 24 26 -14
v 28 26 -14
v -28 26 -18
v -24 26 -18
v 24 26 -18
v 28 26 -18
v -28 30 18
v -24 30 18
v 24 30 18
v 28 30 18
v -28 30 14
v -24 30 14
v 4 30 14
v 24 30 14
v 28 30 14
v 6 30 10
v 10 30 10
v 14 30 10
v 18 30 10
v 22 30 10
v 26 30 10
v -23 30 9
v -16 30 9
v -15 30 9
v -10 30 9
v -9 30 9
v -8 30 9
v -5 30 9
v -4 30 9
v -2 30 9
v 1 30 9
v -23 30 8
v -22 30 8
v -21 30 8
v -16 30 8
v -14 30 8
v -10 30 8
v -6 30 8
v -5 30 8
v -4 30 8
v -3 30 8
v -2 30 8
v 1 30 8
v 2 30 8
v -22 30 7
v -21 30 7
v -20 30 7
v -7 30 7
v -6 30 7
v -5 30 7
v -21 30 6
v -20 30 6
v -19 30 6
v -14 30 6
v -12 30 6
v -8 30 6
v -7 30 6
v -6 30 6
v -5 30 6
v 6 30 6
v 10 30 6
v 14 30 6
v 18 30 6
v 22 30 6
v 26 30 6
v -20 30 5
v -19 30 5
v -18 30 5
v -14 30 5
v -12 30 5
v -8 30 5
v -5 30 5
v -4 30 5
v -19 30 4
v -18 30 4
v -17 30 4
v -23 30 3
v -18 30 3
v -17 30 3
v -16 30 3
v -14 30 3
v -10 30 3
v -8 30 3
v -5 30 3
v -4 30 3
v -3 30 3
v -2 30 3
v 1 30 3
v 2 30 3
v -23 30 2
v -16 30 2
v -15 30 2
v -10 30 2
v -9 30 2
v -5 30 2
v -2 30 2
v 1 30 2
v 6 30 2
v 10 30 2
v 14 30 2
v 18 30 2
v 22 30 2
v 26 30 2
v -23 30 -1
v -22 30 -1
v -16 30 -1
v -13 30 -1
v -11 30 -1
v -10 30 -1
v -7 30 -1
v -6 30 -1
v -5 30 -1
v -4 30 -1
v 1 30 -1
v 2 30 -1
v -17 30 -2
v -16 30 -2
v -13 30 -2
v -12 30 -2
v -8 30 -2
v -7 30 -2
v -6 30 -2
v 6 30 -2
v 10 30 -2
v 14 30 -2
v 18 30 -2
v 22 30 -2
v 26 30 -2
v -9 30 -3
v -8 30 -3
v -7 30 -3
v -22 30 -4
v -20 30 -4
v -10 30 -4
v -9 30 -4
v -8 30 -4
v -7 30 -4
v -2 30 -4
v -1 30 -4
v -22 30 -5
v -20 30 -5
v -10 30 -5
v -7 30 -5
v -6 30 -5
v -3 30 -5
v -2 30 -5
v -1 30 -5
v 0 30 -5
v -4 30 -6
v -3 30 -6
v -2 30 -6
v -1 30 -6
v 0 30 -6
v 1 30 -6
v 6 30 -6
v 10 30 -6
v 14 30 -6
v 18 30 -6
v 22 30 -6
v 26 30 -6
v -22 30 -7
v -18 30 -7
v -17 30 -7
v -16 30 -7
v -13 30 -7
v -12 30 -7
v -10 30 -7
v -7 30 -7
v -6 30 -7
v -4 30 -7
v -3 30 -7
v 0 30 -7
v 1 30 -7
v -23 30 -8
v -18 30 -8
v -16 30 -8
v -13 30 -8
v -11 30 -8
v -7 30 -8
v -5 30 -8
v -4 30 -8
v 1 30 -8
v 2 30 -8
v 6 30 -10
v 10 30 -10
v 14 30 -10
v 18 30 -10
v 22 30 -10
v 26 30 -10
v -28 30 -14
v -24 30 -14
v 4 30 -14
v 24 30 -14
v 28 30 -14
v -28 30 -18
v -24 30 -18
v 24 30 -18
v 28 30 -18

# faces
f 5/4/1 2/4/1 1/4/1
f 6/1/1 3/1/1 2/1/1
f 6/4/1 2/4/1 5/4/1
f 7/4/1 4/4/1 3/4/1
f 7/1/1 3/1/1 6/1/1
f 8/4/1 4/4/1 7/4/1
f 9/4/2 10/4/2 13/4/2
f 10/1/2 11/1/2 14/1/2
f 13/4/2 10/4/2 14/4/2
f 11/4/2 12/4/2 15/4/2
f 14/1/2 11/1/2 15/1/2
f 15/4/2 12/4/2 16/4/2
f 19/4/3 18/4/3 17/4/3
f 20/4/3 18/4/3 19/4/3
f 21/1/3 20/1/3 19/1/3
f 22/1/3 20/1/3 21/1/3
f 23/4/3 22/4/3 21/4/3
f 24/4/3 22/4/3 23/4/3
f 25/4/4 26/4/4 27/4/4
f 27/4/4 26/4/4 28/4/4
f 27/1/4 28/1/4 29/1/4
f 29/1/4 28/1/4 30/1/4
f 29/4/4 30/4/4 31/4/4
f 31/4/4 30/4/4 32/4/4
f 37/4/5 34/4/5 33/4/5
f 38/1/5 35/1/5 34/1/5
f 38/4/5 34/4/5 37/4/5
f 39/4/5 36/4/5 35/4/5
f 39/1/5 35/1/5 38/1/5
f 40/4/5 36/4/5 39/4/5
f 41/1/5 38/1/5 37/1/5
f 41/1/5 39/1/5 38/1/5
f 41/1/5 40/1/5 39/1/5
f 42/1/5 40/1/5 41/1/5
f 43/1/5 40/1/5 42/1/5
f 44/1/5 40/1/5 43/1/5
f 45/4/5 42/4/5 41/4/5
f 46/1/5 43/1/5 42/1/5
f 46/4/5 42/4/5 45/4/5
f 47/4/5 44/4/5 43/4/5
f 47/1/5 43/1/5 46/1/5
f 48/4/5 44/4/5 47/4/5
f 49/4/6 50/4/6 53/4/6
f 50/1/6 51/1/6 54/1/6
f 53/4/6 50/4/6 54/4/6
f 54/1/6 51/1/6 55/1/6
f 51/4/6 52/4/6 56/4/6
f 55/1/6 51/1/6 56/1/6
f 56/4/6 52/4/6 57/4/6
f 55/1/6 56/1/6 58/1/6
f 56/1/6 57/1/6 58/1/6
f 58/1/6 57/1/6 59/1/6
f 59/1/6 57/1/6 60/1/6
f 60/1/6 57/1/6 61/1/6
f 61/1/6 57/1/6 62/1/6
f 62/1/6 57/1/6 63/1/6
f 54/6/6 55/6/6 64/6/6
f 64/6/6 55/6/6 65/6/6
f 65/6/6 55/6/6 66/6/6
f 66/6/6 55/6/6 67/6/6
f 67/6/6 55/6/6 68/6/6
f 68/6/6 55/6/6 69/6/6
f 69/6/6 55/6/6 70/6/6
f 70/6/6 55/6/6 71/6/6
f 71/6/6 55/6/6 72/6/6
f 72/6/6 55/6/6 73/6/6
f 54/6/6 64/6/6 74/6/6
f 64/7/6 65/7/6 74/7/6
f 74/7/6 65/7/6 75/7/6
f 75/7/6 65/7/6 76/7/6
f 65/6/6 66/6/6 77/6/6
f 76/7/6 65/7/6 77/7/6
f 66/7/6 67/7/6 78/7/6
f 67/6/6 68/6/6 79/6/6
f 78/7/6 67/7/6 79/7/6
f 69/6/6 70/6/6 80/6/6
f 70/7/6 71/7/6 81/7/6
f 80/6/6 70/6/6 81/6/6
f 71/6/6 72/6/6 82/6/6
f 81/7/6 71/7/6 82/7/6
f 82/6/6 72/6/6 83/6/6
f 72/7/6 73/7/6 84/7/6
f 83/6/6 72/6/6 84/6/6
f 73/6/6 55/6/6 85/6/6
f 84/7/6 73/7/6 85/7/6
f 85/6/6 55/6/6 86/6/6
f 75/7/6 76/7/6 87/7/6
f 74/6/6 75/6/6 87/6/6
f 76/6/6 77/6/6 88/6/6
f 87/7/6 76/7/6 88/7/6
f 88/6/6 77/6/6 89/6/6
f 69/6/6 80/6/6 90/6/6
f 80/7/6 81/7/6 91/7/6
f 90/6/6 80/6/6 91/6/6
f 82/6/6 83/6/6 92/6/6
f 91/7/6 81/7/6 92/7/6
f 81/6/6 82/6/6 92/6/6
f 88/7/6 89/7/6 93/7/6
f 87/6/6 88/6/6 93/6/6
f 89/6/6 77/6/6 94/6/6
f 93/7/6 89/7/6 94/7/6
f 94/6/6 77/6/6 95/6/6
f 66/7/6 78/7/6 96/7/6
f 78/6/6 79/6/6 96/6/6
f 96/6/6 79/6/6 97/6/6
f 68/7/6 69/7/6 98/7/6
f 69/6/6 90/6/6 98/6/6
f 90/7/6 91/7/6 99/7/6
f 98/6/6 90/6/6 99/6/6
f 91/6/6 92/6/6 100/6/6
f 99/7/6 91/7/6 100/7/6
f 92/6/6 83/6/6 101/6/6
f 100/6/6 92/6/6 101/6/6
f 55/1/6 58/1/6 102/1/6
f 58/3/6 59/3/6 102/3/6
f 59/6/6 60/6/6 103/6/6
f 102/3/6 59/3/6 103/3/6
f 60/3/6 61/3/6 104/3/6
f 103/6/6 60/6/6 104/6/6
f 61/6/6 62/6/6 105/6/6
f 104/3/6 61/3/6 105/3/6
f 62/3/6 63/3/6 106/3/6
f 105/6/6 62/6/6 106/6/6
f 63/1/6 57/1/6 107/1/6
f 106/3/6 63/3/6 107/3/6
f 94/7/6 95/7/6 108/7/6
f 93/6/6 94/6/6 108/6/6
f 95/6/6 77/6/6 109/6/6
f 108/7/6 95/7/6 109/7/6
f 109/6/6 77/6/6 110/6/6
f 96/7/6 97/7/6 111/7/6
f 66/7/6 96/7/6 111/7/6
f 97/6/6 79/6/6 112/6/6
f 111/7/6 97/7/6 112/7/6
f 100/7/6 101/7/6 113/7/6
f 68/7/6 98/7/6 113/7/6
f 99/7/6 100/7/6 113/7/6
f 98/7/6 99/7/6 113/7/6
f 101/6/6 83/6/6 114/6/6
f 113/7/6 101/7/6 114/7/6
f 114/6/6 83/6/6 115/6/6
f 108/6/6 109/6/6 116/6/6
f 109/7/6 110/7/6 116/7/6
f 110/6/6 77/6/6 117/6/6
f 116/7/6 110/7/6 117/7/6
f 117/6/6 77/6/6 118/6/6
f 93/6/6 108/6/6 119/6/6
f 87/6/6 93/6/6 119/6/6
f 108/6/6 116/6/6 119/6/6
f 116/6/6 117/6/6 119/6/6
f 54/6/6 74/6/6 119/6/6
f 74/6/6 87/6/6 119/6/6
f 117/7/6 118/7/6 120/7/6
f 119/6/6 117/6/6 120/6/6
f 118/6/6 77/6/6 121/6/6
f 120/7/6 118/7/6 121/7/6
f 77/6/6 66/6/6 122/6/6
f 121/6/6 77/6/6 122/6/6
f 111/6/6 112/6/6 123/6/6
f 66/7/6 111/7/6 123/7/6
f 112/6/6 79/6/6 124/6/6
f 123/6/6 112/6/6 124/6/6
f 79/6/6 68/6/6 124/6/6
f 68/7/6 113/7/6 125/7/6
f 113/6/6 114/6/6 125/6/6
f 114/7/6 115/7/6 126/7/6
f 125/6/6 114/6/6 126/6/6
f 115/6/6 83/6/6 127/6/6
f 126/7/6 115/7/6 127/7/6
f 83/7/6 84/7/6 128/7/6
f 127/6/6 83/6/6 128/6/6
f 84/6/6 85/6/6 129/6/6
f 128/7/6 84/7/6 129/7/6
f 85/7/6 86/7/6 130/7/6
f 129/6/6 85/6/6 130/6/6
f 86/6/6 55/6/6 131/6/6
f 130/7/6 86/7/6 131/7/6
f 120/7/6 121/7/6 132/7/6
f 119/7/6 120/7/6 132/7/6
f 121/7/6 122/7/6 132/7/6
f 54/6/6 119/6/6 132/6/6
f 122/6/6 66/6/6 133/6/6
f 132/7/6 122/7/6 133/7/6
f 66/7/6 123/7/6 134/7/6
f 133/6/6 66/6/6 134/6/6
f 123/7/6 124/7/6 134/7/6
f 124/6/6 68/6/6 135/6/6
f 134/7/6 124/7/6 135/7/6
f 125/7/6 126/7/6 136/7/6
f 135/6/6 68/6/6 136/6/6
f 68/7/6 125/7/6 136/7/6
f 126/6/6 127/6/6 137/6/6
f 136/7/6 126/7/6 137/7/6
f 127/6/6 128/6/6 137/6/6
f 128/6/6 129/6/6 137/6/6
f 129/7/6 130/7/6 138/7/6
f 137/6/6 129/6/6 138/6/6
f 130/6/6 131/6/6 139/6/6
f 138/7/6 130/7/6 139/7/6
f 55/1/6 102/1/6 140/1/6
f 102/6/6 103/6/6 140/6/6
f 103/3/6 104/3/6 141/3/6
f 140/6/6 103/6/6 141/6/6
f 104/2/6 105/2/6 142/2/6
f 141/3/6 104/3/6 142/3/6
f 105/3/6 106/3/6 143/3/6
f 142/2/6 105/2/6 143/2/6
f 106/6/6 107/6/6 144/6/6
f 143/3/6 106/3/6 144/3/6
f 107/1/6 57/1/6 145/1/6
f 144/6/6 107/6/6 145/6/6
f 133/6/6 134/6/6 146/6/6
f 132/6/6 133/6/6 146/6/6
f 138/6/6 139/6/6 146/6/6
f 135/6/6 136/6/6 146/6/6
f 54/6/6 132/6/6 146/6/6
f 134/6/6 135/6/6 146/6/6
f 137/6/6 138/6/6 146/6/6
f 136/6/6 137/6/6 146/6/6
f 146/6/6 139/6/6 147/6/6
f 147/6/6 139/6/6 148/6/6
f 148/6/6 139/6/6 149/6/6
f 149/6/6 139/6/6 150/6/6
f 150/6/6 139/6/6 151/6/6
f 151/6/6 139/6/6 152/6/6
f 152/6/6 139/6/6 153/6/6
f 153/6/6 139/6/6 154/6/6
f 154/6/6 139/6/6 155/6/6
f 139/6/6 131/6/6 156/6/6
f 155/6/6 139/6/6 156/6/6
f 131/6/6 55/6/6 157/6/6
f 156/6/6 131/6/6 157/6/6
f 147/6/6 148/6/6 158/6/6
f 148/7/6 149/7/6 159/7/6
f 158/6/6 148/6/6 159/6/6
f 149/6/6 150/6/6 160/6/6
f 159/7/6 149/7/6 160/7/6
f 160/6/6 150/6/6 161/6/6
f 151/6/6 152/6/6 162/6/6
f 152/7/6 153/7/6 163/7/6
f 162/6/6 152/6/6 163/6/6
f 153/6/6 154/6/6 164/6/6
f 163/7/6 153/7/6 164/7/6
f 55/1/6 140/1/6 165/1/6
f 140/3/6 141/3/6 165/3/6
f 141/6/6 142/6/6 166/6/6
f 165/3/6 141/3/6 166/3/6
f 142/5/6 143/5/6 167/5/6
f 166/6/6 142/6/6 167/6/6
f 143/6/6 144/6/6 168/6/6
f 167/5/6 143/5/6 168/5/6
f 144/3/6 145/3/6 169/3/6
f 168/6/6 144/6/6 169/6/6
f 145/1/6 57/1/6 170/1/6
f 169/3/6 145/3/6 170/3/6
f 151/6/6 162/6/6 171/6/6
f 162/7/6 163/7/6 172/7/6
f 171/6/6 162/6/6 172/6/6
f 163/6/6 164/6/6 173/6/6
f 172/7/6 163/7/6 173/7/6
f 146/7/6 147/7/6 174/7/6
f 147/6/6 158/6/6 174/6/6
f 174/6/6 158/6/6 175/6/6
f 150/7/6 151/7/6 176/7/6
f 151/6/6 171/6/6 176/6/6
f 171/7/6 172/7/6 177/7/6
f 176/6/6 171/6/6 177/6/6
f 172/6/6 173/6/6 178/6/6
f 177/7/6 172/7/6 178/7/6
f 173/6/6 164/6/6 179/6/6
f 178/6/6 173/6/6 179/6/6
f 155/6/6 156/6/6 180/6/6
f 180/6/6 156/6/6 181/6/6
f 174/7/6 175/7/6 182/7/6
f 146/7/6 174/7/6 182/7/6
f 175/6/6 158/6/6 183/6/6
f 182/7/6 175/7/6 183/7/6
f 150/7/6 176/7/6 184/7/6
f 177/7/6 178/7/6 184/7/6
f 176/7/6 177/7/6 184/7/6
f 178/7/6 179/7/6 184/7/6
f 179/6/6 164/6/6 185/6/6
f 184/7/6 179/7/6 185/7/6
f 164/6/6 154/6/6 186/6/6
f 185/6/6 164/6/6 186/6/6
f 155/6/6 180/6/6 187/6/6
f 180/7/6 181/7/6 188/7/6
f 187/6/6 180/6/6 188/6/6
f 181/6/6 156/6/6 189/6/6
f 188/7/6 181/7/6 189/7/6
f 189/6/6 156/6/6 190/6/6
f 154/7/6 155/7/6 191/7/6
f 155/6/6 187/6/6 191/6/6
f 187/7/6 188/7/6 192/7/6
f 191/6/6 187/6/6 192/6/6
f 188/6/6 189/6/6 193/6/6
f 192/7/6 188/7/6 193/7/6
f 189/7/6 190/7/6 194/7/6
f 193/6/6 189/6/6 194/6/6
f 190/6/6 156/6/6 195/6/6
f 194/7/6 190/7/6 195/7/6
f 156/7/6 157/7/6 196/7/6
f 195/6/6 156/6/6 196/6/6
f 55/1/6 165/1/6 197/1/6
f 165/6/6 166/6/6 197/6/6
f 166/3/6 167/3/6 198/3/6
f 197/6/6 166/6/6 198/6/6
f 167/6/6 168/6/6 199/6/6
f 198/3/6 167/3/6 199/3/6
f 168/3/6 169/3/6 200/3/6
f 199/6/6 168/6/6 200/6/6
f 169/6/6 170/6/6 201/6/6
f 200/3/6 169/3/6 201/3/6
f 170/1/6 57/1/6 202/1/6
f 201/6/6 170/6/6 202/6/6
f 182/6/6 183/6/6 203/6/6
f 146/7/6 182/7/6 203/7/6
f 183/6/6 158/6/6 204/6/6
f 203/6/6 183/6/6 204/6/6
f 158/7/6 159/7/6 205/7/6
f 204/6/6 158/6/6 205/6/6
f 159/6/6 160/6/6 206/6/6
f 205/7/6 159/7/6 206/7/6
f 160/7/6 161/7/6 207/7/6
f 206/6/6 160/6/6 207/6/6
f 161/6/6 150/6/6 208/6/6
f 207/7/6 161/7/6 208/7/6
f 184/6/6 185/6/6 209/6/6
f 150/7/6 184/7/6 209/7/6
f 185/7/6 186/7/6 210/7/6
f 209/6/6 185/6/6 210/6/6
f 186/6/6 154/6/6 211/6/6
f 210/7/6 186/7/6 211/7/6
f 154/7/6 191/7/6 212/7/6
f 191/7/6 192/7/6 212/7/6
f 193/6/6 194/6/6 213/6/6
f 212/7/6 192/7/6 213/7/6
f 194/6/6 195/6/6 213/6/6
f 192/6/6 193/6/6 213/6/6
f 195/7/6 196/7/6 214/7/6
f 213/6/6 195/6/6 214/6/6
f 196/7/6 157/7/6 215/7/6
f 214/7/6 196/7/6 215/7/6
f 146/7/6 203/7/6 216/7/6
f 54/6/6 146/6/6 216/6/6
f 203/7/6 204/7/6 216/7/6
f 204/6/6 205/6/6 217/6/6
f 216/7/6 204/7/6 217/7/6
f 205/6/6 206/6/6 217/6/6
f 206/7/6 207/7/6 218/7/6
f 217/6/6 206/6/6 218/6/6
f 207/6/6 208/6/6 219/6/6
f 218/7/6 207/7/6 219/7/6
f 208/6/6 150/6/6 220/6/6
f 219/6/6 208/6/6 220/6/6
f 209/7/6 210/7/6 220/7/6
f 150/7/6 209/7/6 220/7/6
f 210/6/6 211/6/6 221/6/6
f 220/7/6 210/7/6 221/7/6
f 154/7/6 212/7/6 222/7/6
f 221/6/6 211/6/6 222/6/6
f 211/6/6 154/6/6 222/6/6
f 213/6/6 214/6/6 223/6/6
f 222/7/6 212/7/6 223/7/6
f 212/6/6 213/6/6 223/6/6
f 214/6/6 215/6/6 223/6/6
f 215/7/6 157/7/6 224/7/6
f 223/6/6 215/6/6 224/6/6
f 157/6/6 55/6/6 225/6/6
f 224/7/6 157/7/6 225/7/6
f 197/3/6 198/3/6 226/3/6
f 55/1/6 197/1/6 226/1/6
f 198/6/6 199/6/6 227/6/6
f 226/3/6 198/3/6 227/3/6
f 199/2/6 200/2/6 228/2/6
f 227/6/6 199/6/6 228/6/6
f 200/6/6 201/6/6 229/6/6
f 228/2/6 200/2/6 229/2/6
f 201/3/6 202/3/6 230/3/6
f 229/6/6 201/6/6 230/6/6
f 202/1/6 57/1/6 231/1/6
f 230/3/6 202/3/6 231/3/6
f 53/1/6 54/1/6 232/1/6
f 221/6/6 222/6/6 233/6/6
f 232/1/6 54/1/6 233/1/6
f 220/6/6 221/6/6 233/6/6
f 224/6/6 225/6/6 233/6/6
f 216/6/6 217/6/6 233/6/6
f 218/6/6 219/6/6 233/6/6
f 54/6/6 216/6/6 233/6/6
f 222/6/6 223/6/6 233/6/6
f 223/6/6 224/6/6 233/6/6
f 219/6/6 220/6/6 233/6/6
f 217/6/6 218/6/6 233/6/6
f 55/1/6 226/1/6 234/1/6
f 233/6/6 225/6/6 234/6/6
f 225/6/6 55/6/6 234/6/6
f 227/1/6 228/1/6 234/1/6
f 229/1/6 230/1/6 234/1/6
f 226/1/6 227/1/6 234/1/6
f 228/1/6 229/1/6 234/1/6
f 230/1/6 231/1/6 234/1/6
f 234/1/6 231/1/6 235/1/6
f 231/1/6 57/1/6 236/1/6
f 235/1/6 231/1/6 236/1/6
f 232/4/6 233/4/6 237/4/6
f 234/1/6 235/1/6 238/1/6
f 237/4/6 233/4/6 238/4/6
f 233/1/6 234/1/6 238/1/6
f 235/4/6 236/4/6 239/4/6
f 238/1/6 235/1/6 239/1/6
f 239/4/6 236/4/6 240/4/6
