# MagicaVoxel @ Ephtracy

# group
g Shii-Cho_card

# material
mtllib Shii-Cho_card.mtl
usemtl palette

# normals
vn -1 0 0
vn 1 0 0
vn 0 0 1
vn 0 0 -1
vn 0 -1 0
vn 0 1 0

# texcoords
vt 0.0214844 0.5
vt 0.603516 0.5
vt 0.841797 0.5
vt 0.955078 0.5
vt 0.958984 0.5
vt 0.994141 0.5

# verts
v -28 26 18
v -28 26 14
v -28 26 -14
v -28 26 -18
v -28 30 18
v -28 30 14
v -28 30 -14
v -28 30 -18
v 28 26 18
v 28 26 14
v 28 26 -14
v 28 26 -18
v 28 30 18
v 28 30 14
v 28 30 -14
v 28 30 -18
v -28 26 18
v -28 30 18
v -24 26 18
v -24 30 18
v 24 26 18
v 24 30 18
v 28 26 18
v 28 30 18
v -28 26 -18
v -28 30 -18
v -24 26 -18
v -24 30 -18
v 24 26 -18
v 24 30 -18
v 28 26 -18
v 28 30 -18
v -28 26 18
v -24 26 18
v 24 26 18
v 28 26 18
v -28 26 14
v -24 26 14
v 24 26 14
v 28 26 14
v -28 26 -14
v -24 26 -14
v 24 26 -14
v 28 26 -14
v -28 26 -18
v -24 26 -18
v 24 26 -18
v 28 26 -18
v -28 30 18
v -24 30 18
v 24 30 18
v 28 30 18
v -28 30 14
v -24 30 14
v 4 30 14
v 24 30 14
v 28 30 14
v 6 30 10
v 10 30 10
v 14 30 10
v 18 30 10
v 22 30 10
v 26 30 10
v -19 30 7
v -15 30 7
v -13 30 7
v -12 30 7
v -9 30 7
v -8 30 7
v -5 30 7
v -2 30 7
v -20 30 6
v -19 30 6
v -15 30 6
v -6 30 6
v -5 30 6
v -2 30 6
v -1 30 6
v 6 30 6
v 10 30 6
v 14 30 6
v 18 30 6
v 22 30 6
v 26 30 6
v -12 30 4
v -9 30 4
v -12 30 3
v -9 30 3
v 6 30 2
v 10 30 2
v 14 30 2
v 18 30 2
v 22 30 2
v 26 30 2
v -20 30 1
v -19 30 1
v -15 30 1
v -6 30 1
v -5 30 1
v -2 30 1
v -1 30 1
v -19 30 -0
v -15 30 -0
v -13 30 -0
v -12 30 -0
v -9 30 -0
v -8 30 -0
v -5 30 -0
v -2 30 -0
v 6 30 -2
v 10 30 -2
v 14 30 -2
v 18 30 -2
v 22 30 -2
v 26 30 -2
v -24 30 -3
v -20 30 -3
v -19 30 -3
v -18 30 -3
v -16 30 -3
v -15 30 -3
v -14 30 -3
v -9 30 -3
v -8 30 -3
v -3 30 -3
v -24 30 -4
v -21 30 -4
v -14 30 -4
v -12 30 -4
v -11 30 -4
v -9 30 -4
v -8 30 -4
v -6 30 -4
v -5 30 -4
v -3 30 -4
v -24 30 -5
v -21 30 -5
v -18 30 -5
v -16 30 -5
v -2 30 -5
v 4 30 -5
v -23 30 -6
v -20 30 -6
v -18 30 -6
v -16 30 -6
v -2 30 -6
v 4 30 -6
v 6 30 -6
v 10 30 -6
v 14 30 -6
v 18 30 -6
v 22 30 -6
v 26 30 -6
v -23 30 -7
v -20 30 -7
v -14 30 -7
v -12 30 -7
v -11 30 -7
v -9 30 -7
v -8 30 -7
v -6 30 -7
v -5 30 -7
v -3 30 -7
v -24 30 -8
v -20 30 -8
v -19 30 -8
v -18 30 -8
v -16 30 -8
v -15 30 -8
v -14 30 -8
v -9 30 -8
v -8 30 -8
v -3 30 -8
v 6 30 -10
v 10 30 -10
v 14 30 -10
v 18 30 -10
v 22 30 -10
v 26 30 -10
v -28 30 -14
v -24 30 -14
v 4 30 -14
v 24 30 -14
v 28 30 -14
v -28 30 -18
v -24 30 -18
v 24 30 -18
v 28 30 -18

# faces
f 5/3/1 2/3/1 1/3/1
f 6/1/1 3/1/1 2/1/1
f 6/3/1 2/3/1 5/3/1
f 7/3/1 4/3/1 3/3/1
f 7/1/1 3/1/1 6/1/1
f 8/3/1 4/3/1 7/3/1
f 9/3/2 10/3/2 13/3/2
f 10/1/2 11/1/2 14/1/2
f 13/3/2 10/3/2 14/3/2
f 11/3/2 12/3/2 15/3/2
f 14/1/2 11/1/2 15/1/2
f 15/3/2 12/3/2 16/3/2
f 19/3/3 18/3/3 17/3/3
f 20/3/3 18/3/3 19/3/3
f 21/1/3 20/1/3 19/1/3
f 22/1/3 20/1/3 21/1/3
f 23/3/3 22/3/3 21/3/3
f 24/3/3 22/3/3 23/3/3
f 25/3/4 26/3/4 27/3/4
f 27/3/4 26/3/4 28/3/4
f 27/1/4 28/1/4 29/1/4
f 29/1/4 28/1/4 30/1/4
f 29/3/4 30/3/4 31/3/4
f 31/3/4 30/3/4 32/3/4
f 37/3/5 34/3/5 33/3/5
f 38/1/5 35/1/5 34/1/5
f 38/3/5 34/3/5 37/3/5
f 39/3/5 36/3/5 35/3/5
f 39/1/5 35/1/5 38/1/5
f 40/3/5 36/3/5 39/3/5
f 41/1/5 38/1/5 37/1/5
f 41/1/5 39/1/5 38/1/5
f 41/1/5 40/1/5 39/1/5
f 42/1/5 40/1/5 41/1/5
f 43/1/5 40/1/5 42/1/5
f 44/1/5 40/1/5 43/1/5
f 45/3/5 42/3/5 41/3/5
f 46/1/5 43/1/5 42/1/5
f 46/3/5 42/3/5 45/3/5
f 47/3/5 44/3/5 43/3/5
f 47/1/5 43/1/5 46/1/5
f 48/3/5 44/3/5 47/3/5
f 49/3/6 50/3/6 53/3/6
f 50/1/6 51/1/6 54/1/6
f 53/3/6 50/3/6 54/3/6
f 54/1/6 51/1/6 55/1/6
f 51/3/6 52/3/6 56/3/6
f 55/1/6 51/1/6 56/1/6
f 56/3/6 52/3/6 57/3/6
f 55/1/6 56/1/6 58/1/6
f 56/1/6 57/1/6 58/1/6
f 58/1/6 57/1/6 59/1/6
f 59/1/6 57/1/6 60/1/6
f 60/1/6 57/1/6 61/1/6
f 61/1/6 57/1/6 62/1/6
f 62/1/6 57/1/6 63/1/6
f 54/5/6 55/5/6 64/5/6
f 64/5/6 55/5/6 65/5/6
f 65/5/6 55/5/6 66/5/6
f 66/5/6 55/5/6 67/5/6
f 67/5/6 55/5/6 68/5/6
f 68/5/6 55/5/6 69/5/6
f 69/5/6 55/5/6 70/5/6
f 70/5/6 55/5/6 71/5/6
f 54/5/6 64/5/6 72/5/6
f 64/6/6 65/6/6 73/6/6
f 72/5/6 64/5/6 73/5/6
f 65/5/6 66/5/6 74/5/6
f 73/6/6 65/6/6 74/6/6
f 69/5/6 70/5/6 75/5/6
f 70/6/6 71/6/6 76/6/6
f 75/5/6 70/5/6 76/5/6
f 71/5/6 55/5/6 77/5/6
f 76/6/6 71/6/6 77/6/6
f 77/5/6 55/5/6 78/5/6
f 55/1/6 58/1/6 79/1/6
f 58/3/6 59/3/6 79/3/6
f 59/5/6 60/5/6 80/5/6
f 79/3/6 59/3/6 80/3/6
f 60/3/6 61/3/6 81/3/6
f 80/5/6 60/5/6 81/5/6
f 61/5/6 62/5/6 82/5/6
f 81/3/6 61/3/6 82/3/6
f 62/3/6 63/3/6 83/3/6
f 82/5/6 62/5/6 83/5/6
f 63/1/6 57/1/6 84/1/6
f 83/3/6 63/3/6 84/3/6
f 66/6/6 67/6/6 85/6/6
f 67/5/6 68/5/6 85/5/6
f 68/6/6 69/6/6 86/6/6
f 85/5/6 68/5/6 86/5/6
f 66/6/6 85/6/6 87/6/6
f 85/6/6 86/6/6 87/6/6
f 86/6/6 69/6/6 88/6/6
f 87/6/6 86/6/6 88/6/6
f 55/1/6 79/1/6 89/1/6
f 79/5/6 80/5/6 89/5/6
f 80/3/6 81/3/6 90/3/6
f 89/5/6 80/5/6 90/5/6
f 81/2/6 82/2/6 91/2/6
f 90/3/6 81/3/6 91/3/6
f 82/3/6 83/3/6 92/3/6
f 91/2/6 82/2/6 92/2/6
f 83/5/6 84/5/6 93/5/6
f 92/3/6 83/3/6 93/3/6
f 84/1/6 57/1/6 94/1/6
f 93/5/6 84/5/6 94/5/6
f 54/5/6 72/5/6 95/5/6
f 72/6/6 73/6/6 95/6/6
f 73/5/6 74/5/6 96/5/6
f 95/6/6 73/6/6 96/6/6
f 74/5/6 66/5/6 97/5/6
f 96/5/6 74/5/6 97/5/6
f 75/6/6 76/6/6 98/6/6
f 69/5/6 75/5/6 98/5/6
f 76/5/6 77/5/6 99/5/6
f 98/6/6 76/6/6 99/6/6
f 77/6/6 78/6/6 100/6/6
f 99/5/6 77/5/6 100/5/6
f 78/5/6 55/5/6 101/5/6
f 100/6/6 78/6/6 101/6/6
f 95/5/6 96/5/6 102/5/6
f 96/6/6 97/6/6 102/6/6
f 97/5/6 66/5/6 103/5/6
f 102/6/6 97/6/6 103/6/6
f 66/6/6 87/6/6 104/6/6
f 103/5/6 66/5/6 104/5/6
f 87/5/6 88/5/6 105/5/6
f 104/6/6 87/6/6 105/6/6
f 88/6/6 69/6/6 106/6/6
f 105/5/6 88/5/6 106/5/6
f 98/5/6 99/5/6 107/5/6
f 106/6/6 69/6/6 107/6/6
f 69/5/6 98/5/6 107/5/6
f 99/6/6 100/6/6 108/6/6
f 107/5/6 99/5/6 108/5/6
f 100/5/6 101/5/6 109/5/6
f 108/6/6 100/6/6 109/6/6
f 55/1/6 89/1/6 110/1/6
f 89/3/6 90/3/6 110/3/6
f 90/5/6 91/5/6 111/5/6
f 110/3/6 90/3/6 111/3/6
f 91/4/6 92/4/6 112/4/6
f 111/5/6 91/5/6 112/5/6
f 92/5/6 93/5/6 113/5/6
f 112/4/6 92/4/6 113/4/6
f 93/3/6 94/3/6 114/3/6
f 113/5/6 93/5/6 114/5/6
f 94/1/6 57/1/6 115/1/6
f 114/3/6 94/3/6 115/3/6
f 53/1/6 54/1/6 116/1/6
f 106/5/6 107/5/6 116/5/6
f 105/5/6 106/5/6 116/5/6
f 54/5/6 95/5/6 116/5/6
f 107/5/6 108/5/6 116/5/6
f 104/5/6 105/5/6 116/5/6
f 102/5/6 103/5/6 116/5/6
f 103/5/6 104/5/6 116/5/6
f 108/5/6 109/5/6 116/5/6
f 95/5/6 102/5/6 116/5/6
f 116/5/6 109/5/6 117/5/6
f 117/5/6 109/5/6 118/5/6
f 118/5/6 109/5/6 119/5/6
f 119/5/6 109/5/6 120/5/6
f 120/5/6 109/5/6 121/5/6
f 121/5/6 109/5/6 122/5/6
f 122/5/6 109/5/6 123/5/6
f 123/5/6 109/5/6 124/5/6
f 124/5/6 109/5/6 125/5/6
f 53/1/6 116/1/6 126/1/6
f 116/6/6 117/6/6 126/6/6
f 126/6/6 117/6/6 127/6/6
f 121/5/6 122/5/6 128/5/6
f 122/6/6 123/6/6 128/6/6
f 128/6/6 123/6/6 129/6/6
f 129/6/6 123/6/6 130/6/6
f 123/5/6 124/5/6 131/5/6
f 130/6/6 123/6/6 131/6/6
f 124/6/6 125/6/6 132/6/6
f 131/5/6 124/5/6 132/5/6
f 132/6/6 125/6/6 133/6/6
f 133/6/6 125/6/6 134/6/6
f 125/5/6 109/5/6 135/5/6
f 134/6/6 125/6/6 135/6/6
f 126/5/6 127/5/6 136/5/6
f 53/1/6 126/1/6 136/1/6
f 127/6/6 117/6/6 137/6/6
f 136/5/6 127/5/6 137/5/6
f 118/6/6 119/6/6 138/6/6
f 119/5/6 120/5/6 138/5/6
f 120/6/6 121/6/6 139/6/6
f 138/5/6 120/5/6 139/5/6
f 109/5/6 101/5/6 140/5/6
f 135/5/6 109/5/6 140/5/6
f 134/5/6 135/5/6 140/5/6
f 55/1/6 110/1/6 141/1/6
f 140/5/6 101/5/6 141/5/6
f 101/5/6 55/5/6 141/5/6
f 136/6/6 137/6/6 142/6/6
f 117/5/6 118/5/6 143/5/6
f 142/6/6 137/6/6 143/6/6
f 137/6/6 117/6/6 143/6/6
f 118/6/6 138/6/6 144/6/6
f 138/6/6 139/6/6 144/6/6
f 139/6/6 121/6/6 145/6/6
f 144/6/6 139/6/6 145/6/6
f 134/5/6 140/5/6 146/5/6
f 140/6/6 141/6/6 146/6/6
f 141/1/6 110/1/6 147/1/6
f 146/6/6 141/6/6 147/6/6
f 110/5/6 111/5/6 148/5/6
f 147/1/6 110/1/6 148/1/6
f 111/2/6 112/2/6 149/2/6
f 148/5/6 111/5/6 149/5/6
f 112/5/6 113/5/6 150/5/6
f 149/2/6 112/2/6 150/2/6
f 113/2/6 114/2/6 151/2/6
f 150/5/6 113/5/6 151/5/6
f 114/5/6 115/5/6 152/5/6
f 151/2/6 114/2/6 152/2/6
f 115/1/6 57/1/6 153/1/6
f 152/5/6 115/5/6 153/5/6
f 136/6/6 142/6/6 154/6/6
f 142/5/6 143/5/6 154/5/6
f 143/5/6 118/5/6 155/5/6
f 154/5/6 143/5/6 155/5/6
f 121/5/6 128/5/6 156/5/6
f 128/5/6 129/5/6 156/5/6
f 129/6/6 130/6/6 157/6/6
f 156/5/6 129/5/6 157/5/6
f 131/5/6 132/5/6 158/5/6
f 157/6/6 130/6/6 158/6/6
f 130/5/6 131/5/6 158/5/6
f 132/5/6 133/5/6 158/5/6
f 158/5/6 133/5/6 159/5/6
f 159/5/6 133/5/6 160/5/6
f 133/6/6 134/6/6 161/6/6
f 160/5/6 133/5/6 161/5/6
f 146/5/6 147/5/6 162/5/6
f 161/6/6 134/6/6 162/6/6
f 134/5/6 146/5/6 162/5/6
f 162/5/6 147/5/6 163/5/6
f 154/6/6 155/6/6 164/6/6
f 136/6/6 154/6/6 164/6/6
f 53/1/6 136/1/6 164/1/6
f 155/5/6 118/5/6 165/5/6
f 164/6/6 155/6/6 165/6/6
f 118/6/6 144/6/6 166/6/6
f 165/5/6 118/5/6 166/5/6
f 144/5/6 145/5/6 167/5/6
f 166/6/6 144/6/6 167/6/6
f 145/6/6 121/6/6 168/6/6
f 167/5/6 145/5/6 168/5/6
f 121/5/6 156/5/6 169/5/6
f 168/6/6 121/6/6 169/6/6
f 156/6/6 157/6/6 170/6/6
f 169/5/6 156/5/6 170/5/6
f 158/6/6 159/6/6 170/6/6
f 157/6/6 158/6/6 170/6/6
f 159/5/6 160/5/6 171/5/6
f 170/6/6 159/6/6 171/6/6
f 160/6/6 161/6/6 172/6/6
f 171/5/6 160/5/6 172/5/6
f 162/6/6 163/6/6 172/6/6
f 161/6/6 162/6/6 172/6/6
f 163/5/6 147/5/6 173/5/6
f 172/6/6 163/6/6 173/6/6
f 147/1/6 148/1/6 174/1/6
f 148/3/6 149/3/6 174/3/6
f 149/5/6 150/5/6 175/5/6
f 174/3/6 149/3/6 175/3/6
f 150/3/6 151/3/6 176/3/6
f 175/5/6 150/5/6 176/5/6
f 151/5/6 152/5/6 177/5/6
f 176/3/6 151/3/6 177/3/6
f 152/3/6 153/3/6 178/3/6
f 177/5/6 152/5/6 178/5/6
f 153/1/6 57/1/6 179/1/6
f 178/3/6 153/3/6 179/3/6
f 53/1/6 164/1/6 180/1/6
f 166/5/6 167/5/6 181/5/6
f 180/1/6 164/1/6 181/1/6
f 168/5/6 169/5/6 181/5/6
f 170/5/6 171/5/6 181/5/6
f 164/5/6 165/5/6 181/5/6
f 167/5/6 168/5/6 181/5/6
f 172/5/6 173/5/6 181/5/6
f 165/5/6 166/5/6 181/5/6
f 169/5/6 170/5/6 181/5/6
f 171/5/6 172/5/6 181/5/6
f 175/1/6 176/1/6 182/1/6
f 181/5/6 173/5/6 182/5/6
f 174/1/6 175/1/6 182/1/6
f 147/1/6 174/1/6 182/1/6
f 177/1/6 178/1/6 182/1/6
f 178/1/6 179/1/6 182/1/6
f 173/5/6 147/5/6 182/5/6
f 176/1/6 177/1/6 182/1/6
f 182/1/6 179/1/6 183/1/6
f 179/1/6 57/1/6 184/1/6
f 183/1/6 179/1/6 184/1/6
f 180/3/6 181/3/6 185/3/6
f 182/1/6 183/1/6 186/1/6
f 185/3/6 181/3/6 186/3/6
f 181/1/6 182/1/6 186/1/6
f 183/3/6 184/3/6 187/3/6
f 186/1/6 183/1/6 187/1/6
f 187/3/6 184/3/6 188/3/6
